<?xml version="1.0" standalone="no"?>
<!DOCTYPE svg PUBLIC "-//W3C//DTD SVG 20010904//EN"
 "http://www.w3.org/TR/2001/REC-SVG-20010904/DTD/svg10.dtd">
<svg version="1.0" xmlns="http://www.w3.org/2000/svg"
 width="1024.000000pt" height="1024.000000pt" viewBox="0 0 1024.000000 1024.000000"
 preserveAspectRatio="xMidYMid meet">

<g transform="translate(0.000000,1024.000000) scale(0.100000,-0.100000)"
fill="#000000" stroke="none">
<path d="M400 5118 l0 -4718 4620 0 c2541 0 4620 3 4620 6 0 3 -14 24 -31 45
l-31 39 -4544 0 -4544 0 0 4630 0 4630 4628 -2 4627 -3 3 -4541 2 -4542 33
-24 c17 -13 38 -28 45 -32 9 -6 12 919 12 4611 l0 4618 -4720 0 -4720 0 0
-4717z"/>
<path d="M5094 9001 c-23 -10 -45 -24 -49 -31 -4 -7 -18 -9 -35 -5 -60 13
-130 -44 -130 -105 0 -40 31 -88 66 -105 27 -13 34 -22 36 -48 8 -151 2 -174
-30 -116 -30 56 -90 131 -119 150 -38 25 -113 25 -144 0 -17 -14 -24 -29 -24
-58 0 -80 80 -140 198 -150 50 -5 76 -14 140 -52 l77 -46 -103 -52 c-116 -58
-130 -70 -125 -110 6 -52 45 -43 178 41 66 42 121 76 124 76 2 0 57 -34 121
-75 65 -41 126 -75 136 -75 10 0 26 11 34 24 27 40 5 63 -111 117 -57 27 -104
51 -104 53 0 2 34 25 75 51 67 42 83 47 141 50 163 7 269 131 185 216 -69 68
-196 9 -252 -117 -11 -23 -26 -47 -34 -54 -13 -11 -15 -2 -15 74 0 64 3 86 13
86 7 0 25 13 40 28 69 72 29 182 -66 182 -22 0 -41 8 -53 21 -22 26 -74 49
-106 49 -13 0 -42 -9 -64 -19z m111 -15 c18 -8 41 -26 50 -40 14 -21 22 -24
46 -19 41 8 76 -13 89 -53 15 -45 -4 -84 -53 -108 -38 -18 -38 -19 -36 -70 3
-45 1 -51 -16 -51 -16 0 -21 8 -23 43 -4 53 -22 55 -22 2 l0 -40 -85 0 -85 0
0 29 c0 17 -4 33 -10 36 -6 4 -10 -8 -10 -28 0 -26 -5 -36 -19 -40 -24 -6 -31
10 -31 68 0 37 -4 45 -22 50 -34 11 -66 44 -73 76 -9 38 17 84 55 97 45 16 60
7 53 -34 -4 -22 -2 -34 6 -34 6 0 11 7 11 16 0 31 35 74 75 94 48 24 55 24
100 6z m325 -252 c-25 -14 -63 -42 -84 -62 l-39 -37 19 34 c21 38 97 91 128
91 15 0 8 -8 -24 -26z m-705 -15 c17 -10 41 -32 54 -49 20 -28 17 -27 -33 14
-31 25 -63 46 -71 46 -8 0 -17 5 -21 11 -9 15 31 3 71 -22z m775 17 c0 -2 -26
-23 -57 -47 -32 -23 -73 -54 -92 -68 -32 -24 -34 -24 -23 -4 17 32 103 102
137 112 17 5 31 10 33 10 1 1 2 -1 2 -3z m-784 -59 c59 -43 90 -74 83 -81 -2
-2 -44 25 -92 60 -57 41 -82 64 -69 64 11 0 46 -19 78 -43z m795 16 c-15 -29
-63 -69 -108 -92 -74 -37 -68 -23 18 44 87 67 106 77 90 48z m-806 -62 c69
-50 74 -66 12 -35 -47 24 -95 62 -108 85 -9 18 -8 19 8 11 10 -6 49 -33 88
-61z m835 50 c0 -45 -98 -120 -155 -121 -11 0 2 10 30 24 47 21 115 85 115
106 0 6 2 10 5 10 3 0 5 -9 5 -19z m-850 -96 c39 -23 41 -26 15 -20 -42 9 -90
44 -111 80 l-17 30 34 -32 c19 -17 54 -44 79 -58z m518 18 c-3 -16 -20 -18
-151 -21 -142 -2 -147 -2 -147 18 0 19 6 20 151 20 138 0 150 -1 147 -17z
m-255 -106 c37 -20 64 -38 59 -41 -10 -6 -172 85 -172 97 0 4 10 1 23 -7 12
-7 52 -30 90 -49z m180 17 l-83 -45 -70 38 c-38 21 -70 41 -70 46 0 4 69 7
153 7 l152 0 -82 -46z m6 -42 c-79 -48 -188 -116 -242 -151 -96 -61 -132 -71
-125 -34 2 12 82 58 233 136 126 64 234 122 239 127 6 6 17 10 25 10 8 0 -50
-40 -130 -88z m72 -107 c108 -55 132 -76 111 -97 -7 -7 -45 11 -126 62 -63 40
-113 77 -110 81 8 13 4 14 125 -46z"/>
<path d="M4473 8065 c-40 -17 -53 -42 -53 -100 0 -39 5 -52 30 -77 27 -27 36
-30 73 -25 39 5 77 34 77 58 0 15 -37 10 -50 -6 -7 -8 -25 -15 -41 -15 -33 0
-49 23 -49 73 0 59 62 90 94 46 11 -16 19 -19 31 -12 15 9 15 12 -7 35 -29 33
-64 40 -105 23z"/>
<path d="M4640 7990 c0 -73 3 -83 25 -105 28 -29 79 -33 113 -9 20 14 22 23
22 105 0 82 -1 89 -20 89 -18 0 -20 -7 -20 -80 0 -69 -3 -81 -20 -90 -14 -8
-26 -8 -40 0 -17 9 -20 21 -20 90 0 73 -2 80 -20 80 -18 0 -20 -7 -20 -80z"/>
<path d="M4860 7970 l0 -100 70 0 c56 0 70 3 70 15 0 11 -12 15 -50 15 l-50 0
0 85 c0 78 -2 85 -20 85 -19 0 -20 -7 -20 -100z"/>
<path d="M5040 7970 c0 -93 1 -100 20 -100 19 0 20 7 20 100 0 93 -1 100 -20
100 -19 0 -20 -7 -20 -100z"/>
<path d="M5130 7970 c0 -93 1 -100 20 -100 18 0 20 7 20 68 l1 67 34 -60 c32
-56 58 -85 77 -85 4 0 8 47 8 105 0 100 -1 105 -21 105 -20 0 -21 -4 -17 -70
2 -38 3 -70 1 -70 -1 0 -18 32 -39 70 -29 57 -41 70 -60 70 -24 0 -24 -1 -24
-100z"/>
<path d="M5395 8058 c-2 -7 -18 -50 -35 -96 -36 -99 -36 -102 -10 -102 13 0
22 9 26 25 5 21 12 25 46 25 31 0 41 -4 45 -19 3 -10 16 -21 29 -24 16 -3 24
0 21 7 -2 6 -19 53 -37 104 -29 81 -36 92 -57 92 -13 0 -26 -6 -28 -12z m49
-90 c6 -25 4 -28 -19 -28 -28 0 -29 4 -14 50 13 35 21 29 33 -22z"/>
<path d="M5550 7970 c0 -92 1 -100 19 -100 16 0 20 8 23 38 2 30 7 38 26 40
19 3 26 -4 40 -37 13 -30 23 -41 40 -41 26 0 27 2 6 42 -15 29 -15 34 0 59 21
36 20 55 -4 79 -16 16 -33 20 -85 20 l-65 0 0 -100z m115 56 c16 -12 17 -16 6
-30 -8 -9 -28 -16 -47 -16 -29 0 -34 3 -34 23 0 13 3 27 7 30 11 12 48 8 68
-7z"/>
<path d="M5740 8067 c0 -3 16 -31 35 -63 24 -39 35 -70 35 -96 0 -31 4 -38 20
-38 17 0 20 7 20 43 0 28 10 58 30 92 35 59 36 65 10 65 -11 0 -20 -3 -20 -7
0 -5 -9 -23 -21 -42 l-21 -34 -22 39 c-13 24 -30 40 -44 42 -12 2 -22 1 -22
-1z"/>
<path d="M4563 7755 c-40 -17 -53 -42 -53 -99 0 -66 33 -101 95 -101 39 0 51
5 71 28 46 53 25 154 -37 176 -39 13 -37 13 -76 -4z m81 -47 c19 -27 21 -78 3
-102 -8 -11 -26 -18 -42 -18 -35 0 -55 25 -55 71 0 64 62 96 94 49z"/>
<path d="M4793 7755 c-40 -17 -53 -42 -53 -100 0 -39 5 -52 30 -77 28 -27 36
-30 73 -25 55 8 87 43 87 98 0 54 -23 95 -61 108 -39 13 -37 13 -76 -4z m81
-47 c33 -46 7 -128 -39 -128 -28 0 -55 38 -55 77 0 66 61 99 94 51z"/>
<path d="M5210 7756 c-41 -13 -60 -46 -60 -103 0 -63 34 -98 95 -98 37 0 51 5
66 24 10 13 19 27 19 32 0 15 -37 10 -50 -6 -18 -22 -67 -19 -80 4 -16 31 -12
86 8 104 23 21 56 22 72 2 13 -16 50 -21 50 -7 0 13 -43 49 -66 54 -11 3 -36
0 -54 -6z"/>
<path d="M4310 7660 l0 -100 61 0 c78 0 99 11 99 53 0 18 -5 38 -11 44 -8 8
-8 17 0 31 24 45 -11 72 -93 72 l-56 0 0 -100z m100 60 c29 -16 13 -40 -26
-40 -30 0 -34 3 -34 25 0 27 25 34 60 15z m2 -80 c14 0 19 -6 16 -22 -2 -19
-10 -24 -40 -26 -34 -3 -38 -1 -38 21 0 29 9 39 28 32 7 -3 23 -5 34 -5z"/>
<path d="M4960 7746 c0 -9 12 -16 28 -18 27 -3 27 -4 30 -85 3 -75 5 -83 22
-83 18 0 20 7 20 85 l0 85 30 0 c20 0 30 5 30 15 0 12 -16 15 -80 15 -63 0
-80 -3 -80 -14z"/>
<path d="M5389 7660 c-36 -100 -36 -100 -14 -100 14 0 25 7 28 20 4 16 14 20
45 20 32 0 42 -4 47 -20 6 -19 45 -29 45 -11 0 5 -15 49 -34 98 -29 73 -38 88
-58 91 -22 3 -27 -6 -59 -98z m76 8 c5 -20 3 -29 -8 -34 -28 -10 -36 4 -24 41
11 38 22 36 32 -7z"/>
<path d="M5580 7660 c0 -96 1 -100 21 -100 21 0 22 3 16 71 -3 39 -4 69 -1 66
3 -2 13 -33 22 -68 14 -50 22 -65 38 -67 18 -3 24 7 41 65 l21 68 1 -67 c1
-61 3 -68 21 -68 19 0 20 7 20 100 l0 100 -29 0 c-27 0 -30 -4 -46 -65 -10
-36 -21 -68 -25 -70 -4 -3 -16 27 -26 65 -17 66 -20 70 -46 70 l-28 0 0 -100z"/>
<path d="M5830 7660 c0 -93 1 -100 20 -100 16 0 20 7 20 35 0 34 1 35 38 35
52 0 82 23 82 64 0 49 -25 66 -98 66 l-62 0 0 -100z m110 55 c20 -24 4 -45
-35 -45 -30 0 -35 3 -35 23 0 13 3 27 7 30 12 12 50 7 63 -8z"/>
<path d="M2310 6550 l0 -250 -57 0 -58 -1 -305 -291 -305 -292 0 -80 0 -81
115 -38 c111 -37 756 -223 1128 -326 l183 -51 544 0 544 0 3 48 3 47 1047 3
1047 2 3 -47 c3 -46 4 -48 38 -54 l35 -5 -43 -8 c-104 -19 -181 -111 -182
-216 0 -61 32 -141 69 -174 41 -37 28 -46 -64 -46 -47 0 -85 3 -85 6 0 19 25
91 37 105 31 37 7 59 -67 59 -24 0 -39 6 -48 20 -7 11 -19 20 -28 20 -8 0 -30
15 -47 34 -75 79 -225 68 -311 -23 -36 -37 -85 -43 -93 -11 -4 15 -14 20 -39
20 -23 0 -38 -6 -46 -20 -8 -12 -24 -20 -41 -20 -33 0 -43 -20 -29 -58 6 -15
13 -51 16 -79 l5 -53 -54 0 -55 0 0 103 c-1 125 -7 137 -78 137 -64 0 -82 -7
-82 -32 0 -18 -4 -20 -32 -14 -40 8 -38 6 -49 58 -24 104 -118 175 -223 166
-107 -9 -190 -88 -202 -194 -9 -73 10 -129 61 -180 l44 -43 -82 6 c-45 3 -83
7 -85 8 -1 1 -9 39 -17 83 -18 104 -25 115 -82 143 -128 62 -303 -4 -303 -113
0 -51 49 -329 66 -373 11 -28 14 -55 9 -92 -6 -46 -4 -54 12 -59 35 -11 47
-21 66 -55 29 -51 42 -55 101 -33 12 5 16 0 16 -20 0 -18 -13 -37 -39 -61 -26
-24 -43 -50 -52 -82 l-13 -48 -18 90 c-32 165 -62 202 -182 231 -70 16 -75 19
-91 55 -16 36 -16 38 3 65 19 26 22 50 28 236 l7 206 -29 27 c-90 84 -218 84
-278 2 -20 -26 -21 -42 -21 -220 0 -214 12 -290 52 -337 l25 -30 -29 -10
c-126 -46 -134 -59 -207 -322 -18 -63 -48 -103 -85 -113 -23 -7 -24 -6 -18 41
4 36 11 52 31 67 14 10 26 24 26 30 0 6 11 27 25 48 24 34 25 39 12 76 -24 71
-72 130 -122 148 -48 19 -53 29 -31 60 15 22 31 233 19 251 -27 38 -121 46
-154 13 -19 -19 -21 -30 -18 -127 2 -67 8 -114 16 -127 24 -36 16 -59 -27 -77
-28 -11 -48 -31 -70 -67 -31 -50 -43 -57 -73 -45 -11 4 -14 15 -10 39 9 53 -5
102 -39 141 l-32 36 -10 197 c-12 220 -17 235 -83 266 -59 28 -132 31 -186 7
-77 -34 -81 -47 -73 -238 8 -192 35 -320 81 -379 15 -20 25 -38 24 -40 -2 -2
-31 -14 -64 -27 -43 -17 -69 -36 -91 -65 -37 -49 -120 -234 -142 -319 -15 -57
-15 -64 2 -107 9 -25 35 -62 57 -81 21 -20 39 -40 39 -45 0 -4 13 -25 29 -45
17 -21 28 -43 26 -49 -2 -7 -6 -24 -9 -39 -8 -36 -47 -38 -88 -3 -37 31 -72
32 -101 3 -24 -25 -67 -26 -67 -3 0 11 -94 55 -119 55 -4 0 -22 18 -40 41 -18
22 -48 48 -67 56 -19 9 -36 24 -39 34 -3 9 -41 44 -84 77 l-78 61 -6 151 c-8
174 -22 219 -81 266 -37 30 -47 54 -21 54 28 0 80 65 98 123 10 31 25 61 34
66 12 6 16 21 15 52 -1 24 7 114 18 199 11 85 20 166 20 179 0 38 -69 97 -129
110 -51 11 -132 2 -169 -18 -58 -31 -66 -62 -98 -371 -7 -76 -18 -100 -43
-100 -35 0 -81 -71 -81 -124 0 -13 10 -38 23 -57 l23 -34 -61 -30 c-36 -18
-69 -43 -81 -62 -30 -45 -127 -339 -128 -388 -1 -51 24 -90 70 -113 30 -14 34
-20 29 -42 -4 -14 -8 -41 -10 -60 -2 -19 -18 -78 -35 -130 -38 -113 -52 -246
-28 -264 11 -8 17 -44 22 -136 4 -69 11 -181 16 -250 5 -69 10 -295 10 -502 0
-297 3 -379 13 -390 8 -8 14 -39 14 -80 l0 -68 -248 0 c-215 0 -249 -2 -249
-15 0 -13 487 -15 4350 -13 2892 2 4350 6 4350 13 0 6 -98 11 -268 13 l-268 2
-10 58 c-7 35 -7 59 -2 63 5 3 14 191 19 430 14 651 24 851 45 862 19 11 15
68 -17 230 -24 122 -18 202 15 211 11 3 31 6 44 6 13 0 37 13 53 29 26 27 29
36 29 98 0 42 -11 115 -29 189 -57 234 -81 269 -215 325 -72 30 -81 37 -98 75
-20 45 -14 80 19 116 18 20 87 430 78 465 -16 65 -122 133 -208 133 -53 0
-120 -29 -136 -59 -11 -20 -58 -309 -62 -381 -5 -72 11 -191 31 -237 10 -23
30 -49 44 -58 31 -21 29 -26 -37 -69 -74 -47 -91 -69 -138 -176 -23 -52 -45
-99 -49 -103 -4 -5 -23 5 -41 21 -19 16 -44 34 -57 41 -12 7 -33 30 -47 51
-28 45 -57 62 -135 80 -30 7 -66 23 -80 36 -14 12 -59 39 -101 58 -43 19 -80
39 -84 46 -8 13 29 93 52 111 22 19 31 50 23 79 -4 15 1 89 11 166 10 76 18
153 19 171 0 64 -90 133 -175 133 -52 0 -122 -33 -134 -62 -6 -13 -20 -114
-31 -225 -22 -199 -22 -202 -3 -240 64 -127 62 -121 44 -136 -9 -7 -41 -21
-72 -30 -99 -30 -117 -48 -196 -203 -114 -221 -117 -256 -30 -337 43 -40 57
-47 80 -43 23 5 27 2 27 -17 1 -12 6 -32 13 -45 12 -21 7 -141 -7 -179 -4 -9
-27 -13 -79 -13 -74 0 -75 0 -80 -29 -5 -23 -13 -31 -37 -36 -37 -8 -48 -1
-30 20 10 12 10 18 0 30 -7 8 -19 15 -26 15 -8 0 -14 5 -14 11 0 6 16 9 37 7
26 -2 37 -8 39 -21 4 -27 14 -34 14 -10 0 14 11 25 31 33 45 19 62 51 54 99
-6 37 -4 41 24 55 16 9 33 21 36 26 10 16 -14 40 -40 40 -14 0 -25 7 -28 20
-5 19 -14 20 -131 20 l-127 0 -32 36 c-72 81 -84 107 -91 201 -13 163 -33 213
-97 252 l-29 17 45 32 c27 19 54 50 68 79 14 26 34 57 46 67 12 11 21 31 21
46 0 15 11 59 25 96 14 38 28 75 30 82 3 8 16 1 35 -22 36 -40 107 -71 147
-63 18 3 43 -4 79 -24 29 -17 54 -26 57 -22 2 4 -1 26 -7 48 -12 38 -11 42 18
79 28 35 31 45 31 111 0 67 -3 77 -31 112 -33 42 -104 83 -144 83 -63 0 -131
-37 -158 -86 -8 -15 -13 -14 -44 9 -67 52 -198 57 -250 10 -9 -8 -44 -97 -77
-197 -52 -155 -60 -191 -58 -244 2 -58 0 -64 -28 -87 -16 -13 -48 -29 -70 -35
-113 -30 -139 -44 -179 -98 -38 -51 -39 -52 -92 -52 -48 0 -54 2 -54 21 0 11
-15 41 -32 67 -24 34 -34 62 -38 101 -8 86 -59 99 -60 15 0 -17 -13 -55 -30
-85 -16 -30 -30 -68 -30 -85 0 -30 -2 -32 -51 -38 -47 -6 -53 -5 -85 24 -19
16 -57 41 -84 55 -55 28 -62 45 -27 64 43 23 73 84 81 163 4 40 11 77 16 82 6
6 10 34 10 64 l0 54 143 -2 c78 -1 213 -1 300 -1 l157 1 0 44 c0 42 -1 44 -36
51 l-37 6 31 19 c36 22 78 90 87 142 10 51 -11 129 -46 178 -26 36 -55 54
-134 87 -11 4 210 10 490 13 l510 5 595 172 c327 95 638 186 690 202 l95 28 0
90 0 89 -300 287 -300 286 -63 1 -63 0 3 247 c2 186 -1 248 -10 251 -9 3 -12
-55 -12 -247 l0 -251 -230 0 -230 0 0 250 c0 218 -2 250 -15 250 -14 0 -15
-31 -14 -247 l2 -248 -61 -3 -62 -3 0 251 c0 218 -2 250 -15 250 -14 0 -16
-31 -15 -245 l1 -246 -38 -26 c-21 -14 -113 -80 -206 -147 -221 -160 -211
-154 -235 -133 -14 13 -37 17 -95 17 l-76 0 -3 38 c-3 35 -5 37 -40 40 l-38 3
0 350 c0 226 -4 349 -10 349 -6 0 -10 -123 -10 -350 l0 -350 -41 0 -41 0 2 58
c7 175 -1 642 -10 642 -6 0 -10 -123 -10 -349 l0 -350 -37 -3 c-36 -3 -38 -5
-38 -38 l0 -35 -1077 -3 -1077 -2 -3 37 c-3 36 -5 38 -41 41 l-39 3 7 143 c9
166 -3 556 -16 556 -5 0 -9 -152 -9 -349 l0 -349 -30 -4 c-17 -3 -32 -2 -35 0
-3 3 -5 162 -5 354 0 303 -2 348 -15 348 -13 0 -15 -46 -15 -350 l0 -350 -34
0 c-33 0 -35 -2 -38 -37 l-3 -38 -76 -3 -75 -3 -83 -95 c-56 -63 -87 -91 -95
-86 -54 42 -631 454 -642 459 -12 4 -14 47 -14 254 0 224 -2 249 -16 249 -15
0 -16 -23 -13 -247 l4 -248 -61 -3 -61 -3 -6 107 c-4 59 -7 172 -7 251 0 89
-4 143 -10 143 -6 0 -10 -90 -10 -250 l0 -250 -232 2 -233 3 -3 248 c-1 153
-6 247 -12 247 -6 0 -10 -93 -10 -250z m824 -530 c86 -143 159 -267 162 -275
5 -13 -89 -15 -827 -15 l-834 0 60 57 c33 32 162 155 287 275 l227 218 385 0
384 0 156 -260z m5161 63 c114 -109 244 -233 289 -275 l81 -77 -837 -1 -837 0
166 275 166 275 382 0 382 0 208 -197z m-5197 114 c31 -24 167 -122 302 -219
227 -163 250 -183 320 -269 41 -52 122 -150 179 -219 57 -69 111 -134 120
-144 19 -23 5 -15 -395 218 l-289 168 -152 254 c-83 140 -149 254 -147 254 3
0 31 -19 62 -43z m4143 -4 c-168 -282 -273 -451 -288 -465 -10 -8 -126 -78
-258 -153 -132 -76 -280 -162 -328 -192 -48 -29 -90 -53 -93 -53 -2 0 19 28
48 63 30 34 115 139 189 232 153 191 144 182 259 262 47 33 177 126 289 206
113 81 206 147 207 147 2 0 -9 -21 -25 -47z m-3031 -148 l0 -25 -110 0 -110 0
0 25 0 25 110 0 110 0 0 -25z m2430 0 l0 -25 -110 0 -110 0 0 25 0 25 110 0
110 0 0 -25z m191 -61 c11 -14 11 -18 -3 -28 -9 -6 -56 -39 -105 -73 -52 -37
-104 -83 -128 -115 -22 -29 -55 -70 -74 -90 l-33 -38 -1337 0 c-735 0 -1341 4
-1346 8 -6 4 -39 42 -74 84 -44 54 -60 81 -54 91 4 8 40 51 78 95 l70 81 1496
0 c1363 1 1498 0 1510 -15z m-3521 -349 l0 -65 -850 0 -850 0 0 65 0 65 850 0
850 0 0 -65z m5380 0 l0 -65 -852 2 -853 3 -3 63 -3 62 856 0 855 0 0 -65z
m-5014 -131 c175 -102 338 -197 362 -210 39 -23 42 -28 42 -69 0 -27 -5 -45
-11 -45 -6 0 -44 17 -83 39 -39 21 -174 94 -301 161 -126 68 -256 137 -287
154 l-58 31 0 63 c0 34 4 62 8 62 5 0 152 -84 328 -186z m3284 127 c0 -35 -5
-63 -12 -69 -7 -5 -87 -49 -178 -97 -91 -48 -247 -132 -348 -187 -101 -55
-184 -99 -186 -97 -2 2 -6 23 -9 46 l-5 42 322 187 c176 103 339 198 361 210
22 13 43 24 48 24 4 0 7 -26 7 -59z m-530 -63 l-42 -53 -1234 -5 -1234 -5 -33
40 c-17 22 -38 48 -46 58 -13 16 51 17 1309 17 l1322 0 -42 -52z m-4092 -79
c-31 -57 -52 -79 -64 -66 -3 3 9 32 25 66 23 45 37 61 52 61 19 0 18 -4 -13
-61z m41 -16 c-38 -68 -38 -68 -44 -62 -2 3 8 30 23 60 38 76 45 85 50 71 2
-6 -11 -38 -29 -69z m91 69 c0 -6 -67 -139 -76 -151 -1 -1 -7 0 -13 4 -16 9
60 155 80 155 5 0 9 -4 9 -8z m110 3 c0 -19 -92 -185 -100 -180 -11 7 75 185
90 185 6 0 10 -2 10 -5z m50 1 c0 -4 -38 -75 -77 -144 -14 -24 -27 -41 -30
-39 -7 8 86 187 97 187 6 0 10 -2 10 -4z m-5 -106 c-44 -90 -65 -119 -65 -90
0 14 104 199 109 194 3 -3 -17 -49 -44 -104z m151 -23 c-31 -64 -60 -117 -65
-117 -14 0 -4 24 60 151 29 57 54 99 56 93 2 -6 -21 -63 -51 -127z m89 1 c-36
-73 -70 -135 -75 -136 -7 -3 -6 6 1 25 18 48 123 243 131 243 4 0 -22 -60 -57
-132z m43 -7 c-40 -77 -74 -135 -76 -130 -4 11 130 269 141 269 4 0 -25 -63
-65 -139z m40 -10 c-40 -77 -76 -141 -81 -141 -7 0 117 254 136 278 30 37 11
-12 -55 -137z m152 143 c0 -11 -152 -294 -161 -299 -17 -11 -10 5 69 156 66
128 92 168 92 143z m90 1 c0 -6 -160 -328 -166 -334 -2 -2 -7 -1 -11 3 -9 9
157 336 169 336 5 0 8 -2 8 -5z m138 -169 c10 -91 14 -166 10 -166 -4 0 -8 1
-8 3 0 1 -7 65 -15 142 -16 152 -18 201 -9 193 3 -3 13 -81 22 -172z m3884 8
c54 -99 84 -162 78 -168 -5 -5 -11 -8 -13 -5 -21 22 -177 341 -166 337 8 -2
53 -76 101 -164z m-2 86 c22 -44 38 -80 35 -80 -3 0 -23 36 -45 80 -22 44 -38
80 -35 80 3 0 23 -36 45 -80z m58 -24 c28 -51 64 -118 82 -149 17 -30 27 -58
21 -61 -9 -6 -171 283 -171 305 0 23 21 -6 68 -95z m98 -46 c35 -73 63 -138
61 -143 -3 -9 -147 276 -147 291 0 19 29 -30 86 -148z m38 3 c36 -73 64 -133
62 -133 -5 0 -146 268 -146 277 0 19 25 -24 84 -144z m34 33 c67 -128 79 -156
62 -156 -6 0 -34 48 -63 108 -76 159 -78 162 -68 162 5 0 36 -51 69 -114z m96
1 c65 -120 72 -137 58 -137 -11 0 -132 219 -132 239 0 26 22 -4 74 -102z m93
-3 c28 -57 47 -106 43 -109 -8 -5 -120 202 -120 220 0 2 6 2 13 -1 6 -3 35
-53 64 -110z m33 5 c28 -54 47 -99 43 -99 -8 0 -113 191 -113 204 0 22 27 -18
70 -105z m80 14 c27 -51 45 -95 40 -98 -5 -3 -29 32 -54 77 -55 102 -63 122
-47 117 6 -2 34 -46 61 -96z m44 13 c49 -89 51 -96 37 -96 -8 0 -101 163 -101
176 0 2 4 4 9 4 5 0 30 -38 55 -84z m56 4 c43 -86 45 -90 31 -90 -8 0 -91 150
-91 164 0 3 4 6 10 6 5 0 28 -36 50 -80z m55 9 c24 -47 34 -74 27 -81 -6 -6
-24 16 -51 65 -46 83 -47 87 -27 87 7 0 30 -32 51 -71z m46 -1 c17 -33 28 -62
26 -65 -5 -4 -77 120 -77 132 0 18 24 -13 51 -67z m57 13 c21 -40 28 -62 21
-67 -14 -8 -20 -1 -59 69 -28 50 -30 57 -13 57 12 0 29 -21 51 -59z m582 50
c-8 -5 -218 -68 -465 -139 -694 -200 -816 -234 -822 -228 -8 8 25 19 291 97
132 39 396 117 586 174 190 57 363 104 385 104 28 0 35 -2 25 -8z m-6717 -20
c108 -34 561 -167 857 -251 244 -70 333 -100 295 -100 -24 0 -869 239 -1240
350 l-60 18 43 1 c24 1 71 -8 105 -18z m427 12 c0 -5 -8 -21 -19 -36 -15 -23
-20 -25 -30 -14 -9 12 -8 16 4 21 36 14 11 26 -50 24 -36 -1 -65 -6 -65 -11 0
-5 -7 -3 -17 4 -15 13 -15 12 -4 -9 7 -13 11 -26 8 -28 -2 -3 -49 9 -103 25
l-99 30 188 0 c103 1 187 -2 187 -6z m230 1 c0 -15 -82 -154 -91 -154 -13 0
-13 2 32 84 35 65 59 93 59 70z m175 -104 c-48 -110 -52 -117 -61 -108 -3 3
17 54 45 114 28 59 53 105 56 102 3 -3 -15 -51 -40 -108z m48 42 c-14 -34 -28
-60 -31 -58 -2 3 9 32 24 65 15 34 29 60 30 58 2 -2 -8 -31 -23 -65z m70 -60
c-32 -67 -61 -121 -66 -121 -4 -1 16 45 44 100 28 56 55 113 60 127 5 13 12
22 15 20 2 -3 -21 -60 -53 -126z m4220 108 c-3 -11 -7 -20 -9 -20 -2 0 -4 9
-4 20 0 11 4 20 9 20 5 0 7 -9 4 -20z m231 4 c3 -8 2 -12 -4 -9 -6 3 -10 10
-10 16 0 14 7 11 14 -7z m170 0 c9 -24 2 -26 -12 -4 -7 11 -8 20 -3 20 5 0 12
-7 15 -16z m142 -95 c30 -61 54 -113 52 -115 -2 -2 -29 48 -61 111 -31 63 -55
115 -52 115 3 0 30 -50 61 -111z m113 16 c0 -5 -11 10 -24 35 -13 25 -24 50
-24 55 0 6 11 -10 24 -35 13 -25 24 -49 24 -55z m550 51 c-201 -64 -180 -63
-212 -6 l-28 50 188 -1 188 0 -136 -43z m-4865 -91 c3 -49 9 -110 12 -135 3
-30 2 -40 -4 -30 -5 8 -12 51 -16 95 -3 44 -9 107 -11 140 -4 39 -2 53 3 40 5
-11 12 -60 16 -110z m3550 -36 c-7 -83 -16 -154 -20 -157 -4 -4 -4 16 -1 43 4
28 9 95 13 150 6 89 10 115 18 115 1 0 -4 -68 -10 -151z m46 -17 c-6 -75 -14
-139 -17 -142 -6 -5 2 130 14 250 12 118 15 31 3 -108z m-3732 -54 c4 -49 5
-88 1 -88 -9 0 -17 70 -23 196 -4 94 -4 100 4 44 5 -36 13 -104 18 -152z m46
9 c4 -71 2 -91 -4 -67 -5 19 -11 89 -14 155 -4 85 -3 105 3 67 5 -29 11 -99
15 -155z m140 53 c4 -106 4 -114 -4 -50 -18 151 -20 194 -10 184 5 -5 11 -65
14 -134z m701 32 c17 -86 17 -96 -1 -84 -13 9 -46 160 -38 174 11 18 22 -6 39
-90z m69 76 c29 -137 33 -179 15 -161 -10 10 -39 132 -39 165 0 26 19 22 24
-4z m101 -68 c17 -86 15 -115 -4 -94 -11 11 -40 171 -33 179 14 14 21 -2 37
-85z m174 -5 c13 -85 12 -103 -7 -91 -12 7 -35 162 -27 176 13 21 22 -1 34
-85z m84 1 c10 -68 7 -99 -8 -84 -9 8 -34 162 -28 171 12 19 26 -15 36 -87z
m78 53 c12 -58 14 -134 4 -139 -10 -5 -32 95 -34 153 -1 40 22 29 30 -14z m89
-9 c0 -20 3 -58 6 -84 6 -37 4 -46 -9 -46 -11 0 -17 19 -24 83 -10 91 -9 99
12 90 10 -3 15 -19 15 -43z m83 -35 c8 -83 3 -123 -13 -95 -4 8 -11 53 -15 99
-6 68 -5 83 6 79 9 -3 17 -31 22 -83z m80 78 c3 -5 8 -47 12 -94 6 -73 4 -86
-9 -86 -18 0 -25 29 -27 112 -2 73 -1 75 10 75 6 0 12 -3 14 -7z m95 -86 c2
-55 -1 -87 -8 -87 -5 0 -10 13 -10 29 0 15 -3 56 -7 91 -5 51 -4 62 8 58 10
-3 15 -28 17 -91z m84 3 c2 -67 0 -90 -9 -90 -10 0 -13 25 -13 90 0 50 4 90 9
90 5 0 11 -41 13 -90z m88 0 c0 -73 -3 -90 -15 -90 -12 0 -15 17 -15 90 0 73
3 90 15 90 12 0 15 -17 15 -90z m90 0 c0 -73 -3 -90 -15 -90 -12 0 -15 16 -15
83 0 46 3 87 7 90 18 18 23 0 23 -83z m90 10 c0 -71 -6 -100 -21 -100 -10 0
-13 163 -3 173 16 16 24 -9 24 -73z m90 51 c0 -72 -13 -151 -26 -151 -9 0 -11
19 -7 78 2 42 6 83 9 90 7 23 24 12 24 -17z m170 -8 c0 -77 -12 -143 -26 -143
-14 0 -13 48 2 148 7 44 24 41 24 -5z m171 32 c10 -10 -17 -169 -29 -173 -10
-3 -11 11 -7 65 10 106 17 128 36 108z m86 -32 c-3 -21 -9 -62 -13 -90 -4 -30
-12 -53 -18 -53 -9 0 -10 18 -5 68 5 37 8 77 8 90 1 13 7 22 17 22 13 0 15 -7
11 -37z m69 -35 c-8 -84 -15 -119 -25 -113 -4 2 -2 44 5 92 15 104 13 93 20
93 4 0 4 -32 0 -72z m146 -20 c-13 -82 -32 -127 -32 -77 0 31 19 150 26 161
16 25 19 -11 6 -84z m94 53 c-3 -14 -8 -44 -12 -66 -9 -62 -14 -75 -28 -75
-11 0 -12 10 -5 43 4 23 11 63 14 89 5 36 10 46 21 41 10 -4 13 -14 10 -32z
m73 -54 c-6 -42 -18 -82 -25 -88 -18 -15 -18 -5 1 94 8 43 15 82 15 85 0 3 5
1 10 -4 7 -7 7 -35 -1 -87z m30 27 c-14 -76 -22 -84 -14 -14 7 62 13 85 20 78
3 -2 0 -31 -6 -64z m627 36 c-3 -17 -9 -73 -12 -126 -4 -52 -10 -96 -13 -98
-3 -2 -3 39 0 92 4 54 7 112 8 130 1 17 6 32 12 32 7 0 9 -11 5 -30z m599 -37
c21 -38 47 -84 58 -103 14 -23 16 -31 6 -23 -15 12 -114 193 -106 193 3 0 22
-30 42 -67z m-3511 41 c3 -8 2 -12 -4 -9 -6 3 -10 10 -10 16 0 14 7 11 14 -7z
m55 -21 c5 -21 13 -51 16 -68 6 -29 5 -28 -19 10 -14 22 -26 45 -26 52 0 6 -3
18 -6 27 -4 10 -1 16 10 16 9 0 19 -14 25 -37z m45 -48 c16 -75 14 -102 -3
-39 -11 44 -23 134 -16 119 3 -5 11 -41 19 -80z m76 68 c0 -10 2 -36 5 -58 4
-30 3 -34 -3 -15 -16 47 -22 90 -12 90 6 0 10 -8 10 -17z m77 -15 c-3 -7 -5
-2 -5 12 0 14 2 19 5 13 2 -7 2 -19 0 -25z m97 -19 c9 -70 2 -72 -11 -4 -5 30
-6 55 -3 55 4 0 10 -23 14 -51z m55 -12 c13 -78 14 -117 2 -117 -12 0 -17 19
-26 85 -3 28 -9 60 -12 73 -4 15 -1 22 10 22 11 0 18 -18 26 -63z m31 14 c0
-32 -6 -24 -14 19 -4 25 -3 31 4 20 5 -8 10 -26 10 -39z m77 27 c-3 -8 -6 -5
-6 6 -1 11 2 17 5 13 3 -3 4 -12 1 -19z m90 -15 c-3 -10 -5 -4 -5 12 0 17 2
24 5 18 2 -7 2 -21 0 -30z m92 -15 c-1 -55 -5 -50 -11 15 -2 20 0 37 4 37 4 0
7 -24 7 -52z m78 5 c-3 -10 -5 -2 -5 17 0 19 2 27 5 18 2 -10 2 -26 0 -35z
m182 -5 c-1 -55 -5 -50 -11 15 -2 20 0 37 4 37 4 0 7 -24 7 -52z m90 -25 c1
-43 0 -75 -2 -73 -8 9 -16 150 -8 150 4 0 8 -35 10 -77z m78 -56 c-2 -23 -3
-1 -3 48 0 50 1 68 3 42 2 -26 2 -67 0 -90z m90 0 c-2 -23 -3 -1 -3 48 0 50 1
68 3 42 2 -26 2 -67 0 -90z m90 71 c-2 -13 -4 -3 -4 22 0 25 2 35 4 23 2 -13
2 -33 0 -45z m90 40 c-3 -8 -6 -5 -6 6 -1 11 2 17 5 13 3 -3 4 -12 1 -19z
m137 -40 c-7 -84 -13 -108 -24 -108 -11 0 -13 75 -4 133 4 21 12 37 20 37 11
0 12 -14 8 -62z m33 0 c-2 -13 -4 -3 -4 22 0 25 2 35 4 23 2 -13 2 -33 0 -45z
m90 30 c-3 -7 -5 -2 -5 12 0 14 2 19 5 13 2 -7 2 -19 0 -25z m48 -25 c-9 -86
-16 -113 -26 -113 -11 0 -11 25 -3 109 5 43 11 61 21 61 12 0 13 -11 8 -57z
m32 20 c-3 -10 -5 -4 -5 12 0 17 2 24 5 18 2 -7 2 -21 0 -30z m170 0 c-3 -10
-5 -4 -5 12 0 17 2 24 5 18 2 -7 2 -21 0 -30z m108 0 c-2 -21 -7 -59 -10 -85
-4 -26 -11 -50 -17 -54 -7 -4 -8 11 -4 47 13 106 18 129 27 129 5 0 7 -17 4
-37z m25 -28 c-7 -59 -7 -59 -9 -13 -1 40 7 85 14 76 1 -2 -2 -30 -5 -63z
m171 19 c-5 -21 -9 -30 -10 -19 -1 24 10 67 15 62 3 -2 0 -22 -5 -43z m132 14
c-3 -18 -10 -37 -16 -43 -6 -7 -8 -2 -3 15 3 14 6 33 6 43 0 9 4 17 10 17 5 0
7 -14 3 -32z m47 28 c0 -3 -4 -8 -10 -11 -5 -3 -10 -1 -10 4 0 6 5 11 10 11 6
0 10 -2 10 -4z m-3275 -36 c-9 -16 -18 -30 -21 -30 -2 0 2 14 11 30 9 17 18
30 21 30 2 0 -2 -13 -11 -30z m387 -43 c3 -32 1 -60 -4 -63 -4 -3 -8 10 -8 28
0 18 -3 51 -6 73 -5 27 -3 37 4 30 5 -5 12 -36 14 -68z m3358 -5 c-4 -40 -11
-76 -14 -80 -7 -6 2 122 10 147 10 31 12 2 4 -67z m-4586 57 c-4 -7 -44 0 -44
7 0 2 11 3 24 2 14 -1 23 -5 20 -9z m3543 -41 c-2 -13 -4 -5 -4 17 -1 22 1 32
4 23 2 -10 2 -28 0 -40z m310 15 c-3 -10 -5 -4 -5 12 0 17 2 24 5 18 2 -7 2
-21 0 -30z m-2902 -175 c3 -21 1 -38 -4 -38 -10 0 -30 187 -22 215 3 11 9 -16
13 -60 4 -44 9 -97 13 -117z m325 165 c0 -22 -2 -25 -10 -13 -13 20 -13 40 0
40 6 0 10 -12 10 -27z m977 -10 c-3 -10 -5 -4 -5 12 0 17 2 24 5 18 2 -7 2
-21 0 -30z m950 -45 c-2 -18 -4 -6 -4 27 0 33 2 48 4 33 2 -15 2 -42 0 -60z
m1333 35 c-4 -42 -5 -44 -8 -15 -3 30 2 62 10 62 2 0 1 -21 -2 -47z m-2525
-63 c4 -18 3 -21 -4 -10 -5 8 -12 38 -15 65 -5 49 -5 49 4 10 6 -22 12 -51 15
-65z m1102 8 c-2 -18 -4 -4 -4 32 0 36 2 50 4 33 2 -18 2 -48 0 -65z m260 40
c-2 -13 -4 -5 -4 17 -1 22 1 32 4 23 2 -10 2 -28 0 -40z m1398 -63 c-4 -58
-10 -105 -13 -105 -4 0 -3 50 2 110 5 61 11 108 14 106 2 -3 1 -53 -3 -111z
m-2428 43 c-2 -13 -4 -3 -4 22 0 25 2 35 4 23 2 -13 2 -33 0 -45z m250 10 c-2
-13 -4 -5 -4 17 -1 22 1 32 4 23 2 -10 2 -28 0 -40z m2224 -63 c-5 -44 -7 -83
-5 -87 3 -4 0 -8 -6 -8 -8 0 -10 18 -5 58 12 114 19 157 22 136 2 -11 0 -56
-6 -99z m-1364 53 c-2 -13 -4 -5 -4 17 -1 22 1 32 4 23 2 -10 2 -28 0 -40z
m170 15 c-3 -10 -5 -4 -5 12 0 17 2 24 5 18 2 -7 2 -21 0 -30z m-3241 -14 c-9
-19 -15 -29 -16 -22 0 15 22 64 27 60 2 -2 -3 -19 -11 -38z m1791 4 c-3 -10
-5 -4 -5 12 0 17 2 24 5 18 2 -7 2 -21 0 -30z m3313 -8 c0 -5 -5 -3 -10 5 -5
8 -10 20 -10 25 0 6 5 3 10 -5 5 -8 10 -19 10 -25z m-3218 -10 c2 -19 0 -35
-4 -35 -4 0 -8 16 -8 35 0 19 2 35 4 35 2 0 6 -16 8 -35z m245 -17 c-2 -13 -4
-5 -4 17 -1 22 1 32 4 23 2 -10 2 -28 0 -40z m770 0 c-2 -13 -4 -5 -4 17 -1
22 1 32 4 23 2 -10 2 -28 0 -40z m560 20 c-3 -7 -5 -2 -5 12 0 14 2 19 5 13 2
-7 2 -19 0 -25z m1070 10 c-3 -8 -6 -5 -6 6 -1 11 2 17 5 13 3 -3 4 -12 1 -19z
m-3590 -30 c-3 -7 -5 -2 -5 12 0 14 2 19 5 13 2 -7 2 -19 0 -25z m600 0 c-3
-7 -5 -2 -5 12 0 14 2 19 5 13 2 -7 2 -19 0 -25z m175 7 c3 -14 1 -25 -3 -25
-5 0 -9 11 -9 25 0 14 2 25 4 25 2 0 6 -11 8 -25z m595 3 c-3 -8 -6 -5 -6 6
-1 11 2 17 5 13 3 -3 4 -12 1 -19z m2372 -53 c17 -33 25 -51 16 -40 -19 23
-72 125 -58 110 5 -5 24 -37 42 -70z m-2632 33 c-3 -7 -5 -2 -5 12 0 14 2 19
5 13 2 -7 2 -19 0 -25z m590 0 c-3 -7 -5 -2 -5 12 0 14 2 19 5 13 2 -7 2 -19
0 -25z m510 0 c-3 -7 -5 -2 -5 12 0 14 2 19 5 13 2 -7 2 -19 0 -25z m220 0
c-3 -7 -5 -2 -5 12 0 14 2 19 5 13 2 -7 2 -19 0 -25z m-2855 -40 c4 -64 2 -76
-8 -65 -11 11 -17 127 -6 127 6 0 12 -28 14 -62z m1285 40 c-3 -8 -6 -5 -6 6
-1 11 2 17 5 13 3 -3 4 -12 1 -19z m2673 -75 c-9 -14 -10 -10 -6 22 3 22 7 49
8 60 1 11 3 1 5 -22 2 -24 -1 -51 -7 -60z m-3422 -3 c1 -28 -1 -31 -8 -15 -5
11 -8 40 -8 65 0 41 1 42 8 15 4 -16 8 -46 8 -65z m50 27 c9 -59 -1 -81 -12
-26 -7 36 -8 94 -1 88 2 -3 8 -30 13 -62z m2849 3 c0 -33 -4 -60 -9 -60 -10 0
-11 104 -1 113 11 11 11 10 10 -53z m-2960 28 c-3 -8 -6 -5 -6 6 -1 11 2 17 5
13 3 -3 4 -12 1 -19z m3570 -40 c-2 -13 -4 -3 -4 22 0 25 2 35 4 23 2 -13 2
-33 0 -45z m-3407 -3 c7 -46 -3 -63 -14 -22 -8 30 -8 82 1 74 3 -4 9 -27 13
-52z m2887 -27 c-2 -13 -4 -3 -4 22 0 25 2 35 4 23 2 -13 2 -33 0 -45z m-3085
17 c2 -19 0 -35 -4 -35 -4 0 -8 16 -8 35 0 19 2 35 4 35 2 0 6 -16 8 -35z m45
-17 c-2 -13 -4 -5 -4 17 -1 22 1 32 4 23 2 -10 2 -28 0 -40z m198 22 c1 -10
-2 -17 -7 -14 -4 3 -8 15 -8 26 0 26 13 15 15 -12z m2375 20 c0 -7 -355 -10
-1045 -10 -690 0 -1045 3 -1045 10 0 7 355 10 1045 10 690 0 1045 -3 1045 -10z
m326 -12 c-3 -13 -6 -29 -6 -35 0 -7 -4 -13 -8 -13 -4 0 -6 16 -4 35 2 19 9
35 14 35 6 0 8 -10 4 -22z m91 -15 c-3 -10 -5 -4 -5 12 0 17 2 24 5 18 2 -7 2
-21 0 -30z m530 0 c-3 -10 -5 -4 -5 12 0 17 2 24 5 18 2 -7 2 -21 0 -30z
m-3620 -5 c-3 -7 -5 -2 -5 12 0 14 2 19 5 13 2 -7 2 -19 0 -25z m2943 2 c0
-16 -4 -30 -8 -30 -5 0 -7 14 -4 30 2 17 6 30 8 30 2 0 4 -13 4 -30z m247 -17
c-3 -10 -5 -2 -5 17 0 19 2 27 5 18 2 -10 2 -26 0 -35z m-3618 -5 c1 -5 -8 -8
-19 -8 -17 0 -18 3 -8 26 11 23 13 24 19 7 4 -10 8 -21 8 -25z m3671 17 c0
-14 -4 -25 -9 -25 -4 0 -6 11 -3 25 2 14 6 25 8 25 2 0 4 -11 4 -25z m-343
-10 c0 -8 -4 -15 -9 -15 -4 0 -8 7 -8 15 0 8 4 15 8 15 5 0 9 -7 9 -15z m807
-1 c4 -10 1 -14 -6 -12 -15 5 -23 28 -10 28 5 0 13 -7 16 -16z m-3224 -54 c0
-7 -167 -10 -480 -10 -313 0 -480 3 -480 10 0 7 167 10 480 10 313 0 480 -3
480 -10z m3250 0 c0 -7 -169 -10 -486 -10 -321 0 -483 3 -479 10 4 6 177 10
486 10 313 0 479 -3 479 -10z m-924 -75 c165 -49 196 -279 50 -369 -35 -22
-61 -30 -101 -31 -42 -1 -62 -8 -90 -30 l-37 -27 7 45 c6 41 5 47 -19 62 -34
22 -76 110 -76 157 0 95 66 175 165 199 44 10 47 10 101 -6z m-1536 -27 c67
-35 103 -86 108 -157 6 -80 -21 -139 -82 -183 -42 -29 -46 -36 -46 -72 l0 -40
-43 42 c-49 48 -63 51 -102 20 -26 -20 -27 -21 -14 -1 11 19 9 25 -24 56 -40
37 -76 107 -77 147 0 108 97 208 205 210 17 0 51 -10 75 -22z m3923 -89 c41
-11 124 -78 109 -88 -5 -3 -17 -46 -27 -96 -19 -99 -23 -108 -45 -95 -13 8
-12 22 3 112 18 109 21 135 11 126 -3 -3 -14 -54 -25 -114 -10 -59 -20 -109
-22 -110 -7 -7 -47 9 -47 20 0 6 9 60 20 120 11 60 18 111 15 114 -8 8 -15
-20 -33 -129 -17 -101 -18 -104 -45 -107 -33 -4 -33 3 -12 133 18 106 17 105
6 105 -4 0 -11 -21 -14 -47 -15 -127 -29 -181 -47 -186 -10 -3 -21 -3 -23 -1
-2 3 2 42 9 87 8 45 13 96 13 112 -1 50 -14 2 -29 -103 -12 -83 -22 -113 -36
-100 -5 6 23 195 32 209 26 42 110 60 187 38z m-2982 -19 c19 -5 47 -22 61
-37 23 -25 27 -39 33 -135 6 -95 5 -108 -9 -108 -13 0 -16 13 -17 68 -1 37 -4
92 -9 122 -6 46 -7 36 -9 -62 0 -65 -4 -118 -8 -118 -25 1 -31 25 -38 138 -4
68 -10 121 -13 118 -3 -4 -4 -60 -3 -127 l2 -120 -28 3 -28 3 -8 120 c-4 65
-10 121 -12 124 -12 11 -13 -13 -5 -124 4 -66 7 -121 6 -122 0 0 -12 -3 -26
-5 -22 -3 -25 1 -27 32 -12 164 -16 200 -23 200 -5 0 -7 -15 -5 -32 2 -18 6
-72 9 -120 4 -73 2 -87 -11 -92 -24 -10 -30 6 -36 102 -3 48 -8 94 -12 103 -4
12 4 23 30 39 63 39 120 48 186 30z m-1859 -45 c23 -15 37 -32 35 -39 -3 -8
-9 -50 -12 -95 -7 -70 -10 -81 -26 -81 -18 0 -18 7 -13 108 8 131 -4 132 -14
1 -6 -85 -9 -94 -27 -94 -19 0 -20 6 -18 110 2 72 -1 103 -7 90 -5 -11 -9 -49
-9 -85 -2 -88 -9 -110 -35 -110 -20 0 -21 3 -18 107 2 59 1 105 -3 101 -3 -3
-9 -52 -13 -109 -6 -86 -10 -104 -24 -107 -15 -3 -17 10 -20 104 l-3 107 30
14 c45 20 129 10 177 -22z m425 10 l50 -15 6 -62 c4 -35 10 -87 13 -116 7 -52
6 -54 -17 -50 -21 3 -24 10 -36 98 -8 52 -18 106 -23 120 l-8 25 -1 -25 c-1
-14 6 -67 14 -119 9 -52 14 -95 12 -97 -2 -2 -14 -5 -27 -6 -22 -3 -24 1 -43
117 -10 66 -21 122 -23 124 -13 14 -11 -18 7 -124 21 -124 19 -134 -22 -135
-17 0 -24 26 -45 170 -8 52 -23 88 -24 55 0 -11 9 -67 19 -125 10 -58 18 -106
17 -106 0 -1 -11 -4 -23 -8 -20 -6 -22 -1 -38 91 -9 54 -20 108 -25 120 -11
26 11 45 78 69 49 17 78 17 139 -1z m-2525 -5 c20 -6 46 -18 57 -28 19 -17 20
-20 6 -125 -7 -60 -16 -111 -19 -114 -3 -3 -13 -3 -22 1 -13 5 -15 14 -11 44
4 20 9 75 11 122 7 109 -9 53 -19 -68 -4 -45 -11 -84 -14 -87 -4 -2 -18 -1
-30 2 -25 6 -25 7 -5 191 4 31 2 52 -3 52 -6 0 -13 -44 -17 -97 -10 -131 -13
-145 -40 -141 -24 3 -25 10 -13 152 4 50 4 86 0 82 -5 -4 -12 -58 -18 -119 -9
-104 -12 -112 -32 -115 -21 -3 -21 -1 -20 107 l2 110 35 15 c63 27 98 31 152
16z m1883 -112 c-9 -117 -25 -139 -25 -36 0 72 11 128 26 128 3 0 3 -42 -1
-92z m1479 76 c3 -9 6 -53 6 -99 l0 -83 -57 -4 c-32 -2 -61 -3 -65 -1 -12 6
-9 162 2 184 14 25 104 28 114 3z m2622 1 c29 -12 33 -18 26 -32 -5 -10 -13
-49 -16 -88 -9 -93 -14 -105 -38 -105 -19 0 -20 4 -15 43 13 91 17 182 9 162
-5 -11 -12 -53 -16 -94 -9 -93 -13 -101 -43 -101 -23 0 -25 3 -20 33 12 69 19
192 11 184 -5 -5 -13 -54 -19 -110 -9 -91 -12 -102 -31 -105 -19 -3 -20 0 -12
80 5 46 6 93 3 105 -4 17 1 24 23 31 40 15 98 14 138 -3z m-3356 -110 c14 -74
15 -95 5 -95 -8 0 -17 29 -25 83 -6 45 -14 93 -17 107 -5 20 -3 23 7 13 8 -7
21 -55 30 -108z m993 95 c9 -11 25 -20 35 -20 18 0 20 -31 6 -118 l-5 -33 -67
3 -67 3 -8 50 c-4 28 -12 63 -17 78 -8 27 -8 28 20 22 23 -5 31 -2 40 14 14
27 41 27 63 1z m121 -202 c-3 -5 -10 -6 -15 -3 -11 7 -12 208 -1 219 8 9 24
-203 16 -216z m3317 113 c-15 -96 -21 -115 -31 -105 -8 8 7 111 26 184 13 50
16 -3 5 -79z m-7261 -11 c-10 -93 -14 -109 -26 -97 -8 7 12 172 22 188 12 20
13 1 4 -91z m303 -31 c-12 -102 -17 -120 -31 -103 -13 14 18 228 31 215 8 -8
8 -40 0 -112z m2052 27 c-4 -42 -11 -76 -17 -76 -7 0 -8 14 -4 38 3 20 6 59 6
87 0 36 3 46 11 38 8 -8 9 -36 4 -87z m160 -17 c13 -81 15 -113 7 -121 -8 -8
-13 -8 -16 3 -10 30 -26 147 -26 187 0 77 17 43 35 -69z m900 26 l0 -80 -58 2
c-32 1 -61 4 -65 8 -3 3 2 18 11 33 17 26 37 67 50 105 5 13 15 17 34 15 28
-3 28 -3 28 -83z m2275 60 c50 -26 90 -95 90 -155 0 -37 -35 -109 -56 -117
-12 -4 -14 -14 -9 -39 6 -37 0 -41 -30 -20 -11 8 -43 13 -70 13 -60 -1 -105
21 -139 66 -25 32 -25 34 -11 87 10 36 11 59 4 71 -8 15 -3 26 23 54 56 60
129 75 198 40z m317 -67 c-8 -85 -19 -120 -32 -107 -5 6 13 178 21 190 15 26
19 0 11 -83z m241 79 c7 -9 6 -40 -3 -106 -15 -100 -19 -111 -36 -94 -12 12 8
213 21 213 4 0 12 -6 18 -13z m-5031 -9 c57 -24 58 -28 55 -138 -3 -88 -5
-101 -20 -98 -14 3 -17 19 -20 111 -4 140 -22 142 -22 2 0 -96 -2 -105 -19
-105 -16 0 -19 13 -28 118 l-10 117 -1 -117 c-2 -117 -2 -118 -26 -118 -23 0
-24 3 -34 113 l-10 112 1 -115 c0 -110 -1 -115 -22 -118 -20 -3 -21 1 -22 80
0 46 -5 92 -10 103 -6 13 -8 -16 -5 -87 4 -84 2 -108 -8 -108 -21 0 -30 168
-10 198 37 56 140 80 211 50z m3169 -73 l-20 -65 -43 0 c-35 0 -43 3 -43 19 0
10 -3 39 -6 65 l-7 46 70 0 70 0 -21 -65z m957 54 c69 -17 125 -77 112 -121
-22 -78 -59 -168 -67 -160 -4 4 5 48 22 97 31 93 36 116 21 100 -5 -6 -21 -47
-36 -92 -24 -74 -40 -95 -57 -78 -3 3 5 41 19 83 13 42 28 89 33 105 5 15 5
27 1 27 -4 0 -21 -45 -40 -100 -18 -55 -38 -100 -44 -100 -36 1 -37 16 -6 114
16 54 28 103 26 109 -2 7 -19 -36 -38 -95 -19 -59 -38 -108 -44 -108 -34 0
-35 17 -4 114 17 54 28 100 25 103 -7 7 -10 -1 -46 -114 -29 -89 -35 -99 -57
-85 -9 6 -6 27 12 87 27 88 29 99 16 91 -5 -3 -19 -44 -32 -91 -13 -47 -27
-85 -31 -85 -13 0 -9 22 13 91 12 35 31 74 42 86 29 32 88 41 160 22z m-1447
-117 c-11 -10 -13 3 -7 48 l6 45 3 -44 c2 -23 1 -46 -2 -49z m-2594 -25 c2
-48 0 -87 -4 -87 -5 0 -8 22 -8 49 0 26 -3 70 -6 97 -5 34 -3 46 4 39 6 -5 12
-49 14 -98z m4965 56 c-3 -10 -5 -4 -5 12 0 17 2 24 5 18 2 -7 2 -21 0 -30z
m813 -23 c30 -6 77 -21 106 -34 53 -24 53 -25 48 -63 -3 -21 -7 -43 -9 -49 -2
-7 -29 -2 -77 14 -55 19 -95 25 -161 26 l-88 1 6 45 c3 25 14 51 23 58 19 15
80 16 152 2z m-3800 -4 c0 -3 -4 -8 -10 -11 -5 -3 -10 -1 -10 4 0 6 5 11 10
11 6 0 10 -2 10 -4z m-985 -24 c49 -17 50 -18 53 -60 l3 -43 -48 8 c-26 4 -94
8 -151 8 l-102 0 0 35 c0 61 12 67 125 68 42 1 90 -6 120 -16z m3965 -17 c0
-19 -4 -35 -8 -35 -4 0 -6 16 -4 35 2 19 6 35 8 35 2 0 4 -16 4 -35z m-2037 4
l37 -10 0 -56 c0 -49 -2 -54 -17 -48 -51 21 -201 16 -298 -11 -18 -4 -20 1
-23 45 -3 54 7 66 73 82 46 11 186 10 228 -2z m-1213 -11 c-1 -31 -17 -39 -76
-36 -52 3 -59 5 -62 26 -3 21 0 22 67 22 50 0 71 -4 71 -12z m128 -15 c14 -23
14 -23 -42 -23 -60 0 -69 8 -33 33 29 21 56 17 75 -10z m765 8 c3 -11 2 -22
-1 -25 -3 -3 -158 -6 -344 -6 l-338 0 0 25 0 25 339 0 c327 0 339 -1 344 -19z
m649 -6 l-4 -25 -134 0 -134 0 0 25 0 25 139 0 138 0 -5 -25z m308 0 l0 -25
-131 0 -130 0 28 25 c26 22 36 24 131 25 l102 0 0 -25z m-4627 -14 l52 -18 -3
-44 c-4 -55 -12 -63 -48 -48 -16 6 -81 13 -144 16 -63 2 -120 6 -126 8 -6 2
-8 21 -5 51 5 44 9 50 36 56 47 11 181 -1 238 -21z m2625 -23 c5 -29 8 -56 5
-60 -2 -5 -23 -8 -46 -8 -49 0 -219 -26 -259 -39 -26 -9 -27 -8 -37 40 -6 28
-11 52 -11 54 0 22 169 64 261 64 l76 1 11 -52z m3337 24 l50 -17 -3 -45 c-2
-25 -5 -47 -7 -49 -2 -2 -25 4 -51 13 -30 10 -81 16 -137 16 l-89 0 6 31 c3
17 6 37 6 45 0 17 21 22 105 22 42 1 90 -6 120 -16z m-4517 -52 c4 -40 -5 -80
-18 -80 -6 0 -10 27 -10 61 0 44 3 60 13 57 6 -3 13 -19 15 -38z m-38 -25 c0
-30 -4 -55 -10 -55 -5 0 -10 25 -10 55 0 30 5 55 10 55 6 0 10 -25 10 -55z
m69 12 c-1 -18 -5 -43 -9 -57 -6 -19 -8 -9 -9 38 -1 40 3 61 9 57 6 -3 10 -21
9 -38z m-425 13 c23 -8 26 -15 26 -56 0 -38 -3 -45 -16 -40 -39 15 -181 17
-231 3 l-51 -14 -4 45 c-4 50 4 57 75 72 48 10 163 5 201 -10z m324 -30 c0
-27 -3 -50 -9 -50 -10 0 -13 83 -2 93 3 4 7 7 8 7 1 0 2 -22 3 -50z m1582 35
c16 -19 40 -19 40 0 0 13 42 15 338 13 l337 -3 5 -97 c4 -74 9 -101 23 -116
26 -29 34 -94 13 -111 -9 -7 -16 -19 -16 -25 0 -6 -38 -30 -85 -54 -110 -56
-130 -91 -195 -334 -15 -57 -30 -102 -34 -100 -3 1 -31 2 -61 2 -48 0 -55 2
-55 20 0 12 12 26 30 35 19 10 30 23 30 36 0 18 -5 21 -30 17 -24 -4 -30 -1
-32 16 -3 20 -10 21 -174 24 l-171 2 -16 82 c-19 97 -61 166 -136 223 -29 22
-54 50 -58 63 -3 12 -13 27 -23 32 -15 8 -19 28 -23 127 -2 65 -8 128 -12 141
l-7 22 150 0 c121 0 152 -3 162 -15z m2051 -1 c30 -9 76 -27 102 -41 52 -26
53 -30 28 -96 l-10 -25 -51 25 c-28 13 -90 34 -138 46 -48 12 -88 22 -90 23
-2 1 2 20 9 43 12 39 14 41 54 41 23 0 66 -7 96 -16z m-3514 -71 c-2 -16 -4
-3 -4 27 0 30 2 43 4 28 2 -16 2 -40 0 -55z m5353 68 c24 -7 37 -32 54 -113 8
-36 34 -36 38 -1 4 33 24 41 33 13 8 -24 -18 -70 -39 -70 -9 0 -11 -14 -8 -54
l4 -54 -56 -36 c-32 -21 -61 -47 -67 -62 -12 -32 -14 -30 -22 19 -5 31 -3 37
12 37 25 0 101 57 101 76 0 12 -9 8 -35 -15 -20 -17 -41 -32 -48 -32 -7 -1
-25 -3 -40 -5 -20 -2 -36 4 -53 21 -33 33 -30 44 10 35 21 -5 45 -3 65 6 51
22 37 44 -34 54 l-40 5 0 51 c0 52 -16 84 -41 84 -14 0 -19 31 -7 43 8 9 140
7 173 -2z m-4804 -62 c26 -43 39 -57 45 -48 4 7 11 11 14 7 4 -4 -5 -14 -20
-24 -24 -15 -26 -22 -21 -55 5 -32 1 -43 -29 -79 -19 -23 -35 -53 -35 -66 0
-33 -16 -30 -34 8 -16 32 -13 55 4 28 7 -10 10 -11 10 -2 0 6 18 28 40 48 50
46 53 66 3 25 -44 -36 -100 -42 -126 -13 -22 24 -43 78 -50 127 -3 22 -3 32
-1 23 7 -25 24 -23 24 3 0 12 4 17 11 14 7 -5 8 -25 4 -56 -6 -41 -4 -49 9
-49 12 0 16 10 16 40 0 47 -24 90 -51 90 -21 0 -26 26 -6 33 6 3 44 6 84 6
l72 1 37 -61z m1944 22 c35 -10 40 -41 6 -41 -14 0 -26 -5 -26 -11 0 -5 4 -8
9 -5 17 11 38 -5 35 -27 -11 -81 -16 -98 -27 -94 -15 5 -18 80 -3 89 6 5 1 8
-13 8 -21 0 -23 -4 -19 -40 l4 -40 -47 0 c-78 0 -95 -52 -26 -79 35 -13 40
-13 67 8 35 25 38 18 10 -26 -17 -28 -25 -33 -60 -33 -30 0 -48 7 -75 31 -20
18 -38 29 -41 26 -10 -10 27 -55 56 -67 41 -17 51 -32 42 -65 l-8 -29 -13 31
c-8 20 -30 40 -62 57 -27 15 -49 33 -50 39 0 7 0 38 1 71 1 36 -2 56 -8 52
-17 -10 -43 25 -40 52 2 14 10 28 18 30 12 4 13 2 3 -10 -10 -12 -10 -18 2
-34 14 -18 14 -18 15 5 0 15 5 21 14 18 8 -3 18 5 25 21 31 69 36 72 114 71
39 -1 83 -4 97 -8z m1942 -28 c8 -10 23 -39 33 -65 16 -44 35 -56 35 -22 0 8
5 14 10 14 6 0 10 -2 10 -5 0 -12 -24 -55 -32 -56 -4 -1 -14 -2 -20 -3 -7 0
-14 -10 -16 -21 -5 -26 -39 -63 -75 -81 -33 -18 -69 -4 -100 37 -22 30 -40
149 -22 149 10 0 33 11 110 53 38 21 48 21 67 0z m-3832 -13 c-24 -15 -37 -11
-16 5 11 8 22 12 25 9 3 -3 -1 -9 -9 -14z m4610 11 c0 -5 -9 -11 -20 -14 -13
-3 -20 0 -20 9 0 8 9 14 20 14 11 0 20 -4 20 -9z m-6725 -92 c-4 -5 3 -9 14
-9 20 0 20 -1 -4 -67 -23 -67 -71 -123 -102 -123 -8 0 -31 12 -53 26 -50 34
-63 25 -17 -10 28 -21 33 -31 29 -53 l-5 -26 -13 25 c-7 14 -25 33 -38 42 -14
9 -33 28 -42 41 -16 24 -16 28 1 66 18 39 18 40 -3 55 -25 17 -29 56 -7 74 12
10 16 9 21 -5 6 -15 16 -16 65 -11 36 4 60 3 64 -4 8 -12 45 -14 45 -1 0 5
-10 11 -22 15 l-23 6 24 19 24 19 24 -35 c13 -19 21 -39 18 -44z m2470 42 l40
-39 17 21 18 22 0 -27 c0 -16 4 -28 9 -28 4 0 7 12 5 26 -1 16 2 24 9 21 22
-7 19 -54 -3 -75 -15 -14 -18 -22 -10 -27 7 -4 17 -2 22 3 8 8 19 6 37 -7 14
-10 34 -21 44 -24 28 -10 20 -21 -43 -55 -33 -18 -62 -37 -65 -43 -4 -5 -11
-9 -17 -9 -6 0 -3 9 7 20 25 28 3 25 -41 -5 -44 -30 -60 -31 -74 -6 -15 29
-13 38 11 44 12 3 19 11 16 19 -4 14 -21 15 -49 3 -13 -5 -18 -2 -18 10 0 13
-6 16 -24 11 -23 -6 -23 -4 -23 57 1 34 -3 72 -7 84 -7 19 -3 22 36 31 23 5
48 10 53 11 6 0 28 -17 50 -38z m-1465 -15 c11 -19 30 -38 40 -41 11 -4 20
-15 20 -26 0 -10 4 -19 9 -19 15 0 23 18 11 25 -6 4 -8 11 -4 16 9 16 24 -1
24 -27 0 -16 -8 -28 -24 -35 -20 -9 -26 -22 -31 -63 -8 -59 -26 -92 -55 -101
-11 -3 -23 -17 -26 -31 -7 -26 -24 -33 -24 -10 0 8 -3 21 -6 29 -3 10 4 17 21
21 27 7 81 53 72 62 -2 3 -22 -6 -42 -21 -45 -30 -51 -30 -92 -5 -37 22 -70
79 -75 130 -3 33 -1 35 32 41 l35 5 -37 8 -36 8 61 33 c80 44 100 44 127 1z
m499 25 c8 -5 11 -16 8 -24 -5 -12 -18 -14 -69 -10 -72 6 -73 7 -65 28 7 17
101 22 126 6z m5209 -36 c-2 -57 -13 -66 -22 -17 -9 54 -8 62 9 62 12 0 15
-11 13 -45z m-1714 1 c31 -28 34 -41 7 -26 -29 15 -39 12 -17 -5 12 -9 45 -16
80 -16 34 -1 48 -4 33 -6 -26 -4 -27 -6 -11 -18 17 -12 17 -14 0 -53 -22 -47
-60 -86 -99 -101 -33 -13 -57 -3 -81 34 -16 24 -36 34 -36 16 0 -4 13 -23 29
-41 18 -21 27 -40 23 -53 -5 -18 -7 -17 -20 9 -8 16 -30 45 -49 65 -28 29 -33
41 -27 63 3 14 13 30 21 35 14 7 13 11 -2 34 -10 16 -14 34 -10 47 8 24 45 27
45 4 0 -14 -3 -14 -15 -4 -13 11 -15 8 -15 -14 0 -14 5 -26 10 -26 6 0 10 5
10 10 0 6 6 10 13 10 6 1 28 14 47 30 19 17 35 30 37 30 1 0 13 -11 27 -24z
m-3494 -36 c0 -31 -27 -78 -49 -85 -39 -12 -71 25 -71 83 0 20 4 22 60 22 54
0 60 -2 60 -20z m5304 -28 c2 -4 -15 -7 -40 -7 -24 0 -44 3 -44 8 0 9 77 9 84
-1z m-2884 -23 c-12 -8 -12 -9 5 -7 11 1 22 -2 25 -7 6 -12 -35 -19 -58 -10
-15 6 -15 8 2 21 11 8 25 14 30 14 6 0 4 -5 -4 -11z m-1846 -78 c-34 -31 -39
-33 -42 -17 -2 11 11 34 35 58 36 37 38 38 41 16 3 -16 -7 -32 -34 -57z m2225
2 c-1 -37 -3 -42 -8 -23 -7 24 -3 70 5 70 2 0 4 -21 3 -47z m-2892 15 c-3 -8
-6 -5 -6 6 -1 11 2 17 5 13 3 -3 4 -12 1 -19z m827 1 c22 -6 54 -25 72 -43 35
-35 46 -67 70 -201 13 -75 14 -99 3 -142 -13 -57 -36 -75 -56 -46 -7 10 -17
23 -23 30 -16 20 -12 22 22 12 17 -5 34 -6 37 -3 12 11 -27 24 -75 24 l-51 0
-11 64 c-7 35 -12 75 -12 89 0 32 -10 58 -20 52 -4 -2 -3 -28 1 -57 5 -29 13
-77 17 -106 9 -51 9 -53 -22 -71 -17 -11 -44 -23 -60 -27 l-29 -7 7 129 c14
233 18 207 -34 217 l-45 9 25 16 c14 9 39 31 55 49 32 35 40 36 129 12z m-788
-14 c1 -8 -4 -15 -12 -15 -16 0 -16 2 -8 25 7 17 17 13 20 -10z m21 3 c-3 -8
-6 -5 -6 6 -1 11 2 17 5 13 3 -3 4 -12 1 -19z m493 -29 c0 -13 -6 -11 -24 7
-9 8 -16 23 -16 32 1 14 5 12 20 -7 11 -13 20 -27 20 -32z m-47 11 c10 -16 23
-30 28 -30 6 0 7 -4 4 -10 -3 -5 -22 -10 -40 -10 -28 0 -36 -4 -39 -22 -13
-61 -17 -156 -17 -367 -1 -194 -3 -231 -15 -231 -32 0 -35 42 -27 294 7 231 4
299 -11 225 -3 -18 -6 -69 -6 -115 l0 -84 -31 19 c-18 11 -38 17 -46 14 -10
-4 0 -13 29 -28 37 -18 43 -26 46 -56 3 -39 -12 -89 -28 -89 -5 0 -10 11 -10
25 0 14 -12 37 -26 52 -21 21 -32 25 -65 20 -40 -5 -40 -5 -25 16 32 44 44 74
71 172 36 133 67 189 119 215 55 27 68 25 89 -10z m791 14 c9 -24 7 -34 -7
-34 -7 0 -46 -16 -86 -35 -41 -20 -76 -33 -79 -30 -10 10 41 53 98 84 64 36
66 36 74 15z m-1096 -82 c47 -76 47 -84 7 -146 -20 -31 -40 -56 -45 -56 -5 0
-14 9 -20 21 -10 17 -7 28 14 60 15 21 31 39 36 39 6 0 10 5 10 11 0 6 -9 8
-20 4 -15 -5 -20 -2 -20 12 -1 10 -7 32 -16 48 -14 29 -14 28 -9 -28 6 -64
-16 -122 -57 -152 -16 -12 -19 -19 -10 -22 6 -3 12 -11 12 -19 0 -12 -12 -14
-57 -12 -55 3 -58 4 -81 43 -20 35 -22 51 -20 123 3 80 -4 105 -16 60 -3 -13
-6 -35 -6 -50 0 -16 -3 -28 -7 -28 -13 0 -43 34 -43 49 1 26 54 95 84 110 25
12 33 11 57 -3 35 -21 52 -20 80 3 23 19 25 19 60 0 22 -11 49 -38 67 -67z
m5356 79 c12 -19 -8 -41 -60 -67 -30 -15 -57 -24 -60 -21 -14 14 10 46 54 70
52 29 58 31 66 18z m-2074 -117 c0 -10 -10 -7 -40 12 -47 31 -74 69 -65 92 5
14 16 7 56 -36 27 -29 49 -60 49 -68z m-5107 63 c54 -50 66 -87 20 -63 -39 20
-97 82 -89 95 11 17 18 14 69 -32z m6104 3 c-12 -22 -25 -40 -28 -40 -6 0 -29
46 -29 60 0 4 9 6 19 3 11 -3 28 0 38 6 10 6 19 11 20 11 1 0 -8 -18 -20 -40z
m-2093 0 c49 -28 74 -55 62 -68 -19 -19 -139 58 -130 83 8 19 5 20 68 -15z
m2021 -1 c9 -17 15 -33 12 -35 -8 -8 -49 45 -42 55 9 16 13 14 30 -20z m142
14 c4 -12 -55 -58 -64 -50 -3 3 5 20 17 37 21 30 40 35 47 13z m-1164 -34 c15
-22 38 -45 52 -51 33 -15 32 -24 -5 -31 -27 -6 -29 -9 -23 -39 4 -18 7 -85 7
-148 l1 -115 -35 1 c-19 1 -62 12 -95 26 -33 14 -68 28 -78 32 -16 5 -13 13
28 68 58 80 68 98 56 98 -5 0 -33 -33 -62 -72 -28 -40 -54 -75 -56 -77 -2 -3
-26 1 -53 8 -27 7 -55 9 -61 5 -7 -4 17 -15 55 -24 37 -10 70 -20 72 -23 3 -3
-1 -19 -10 -35 -8 -16 -18 -48 -22 -71 -4 -23 -10 -41 -13 -41 -30 0 -141 47
-159 67 -29 32 -24 63 23 148 46 84 148 237 171 257 17 14 140 56 169 57 6 0
22 -18 38 -40z m-1995 -26 c43 -42 65 -75 82 -118 22 -57 24 -72 24 -333 l1
-272 -35 -13 c-24 -8 -104 -12 -248 -12 -200 0 -215 1 -228 19 -8 11 -14 34
-14 52 0 29 3 32 41 38 50 8 78 36 118 114 38 75 113 273 106 280 -8 8 -10 4
-59 -122 -75 -192 -117 -256 -170 -256 -11 0 -54 10 -95 22 l-73 22 4 50 c8
91 32 120 87 105 10 -3 22 24 43 96 16 55 38 130 48 166 12 39 30 77 47 93 30
30 215 126 244 126 10 0 45 -26 77 -57z m1453 5 c-23 -65 37 -141 80 -102 21
19 15 41 -7 23 -9 -7 -14 -8 -14 -1 0 6 5 14 10 17 18 11 11 27 -10 22 -23 -6
-26 3 -8 21 17 17 39 15 54 -5 21 -28 16 -53 -16 -90 -19 -21 -30 -45 -30 -64
0 -37 -18 -44 -64 -25 l-36 15 6 78 c5 76 33 180 42 155 2 -7 -1 -27 -7 -44z
m1559 -13 c0 -2 -18 -6 -40 -10 -30 -5 -41 -12 -45 -28 -6 -25 -25 -293 -25
-350 l0 -39 -36 47 -35 47 9 101 c9 100 5 146 -9 97 -4 -14 -8 -56 -8 -95 -2
-84 -10 -102 -39 -86 -52 28 -103 -9 -118 -87 -13 -66 -42 -14 -31 56 8 49
139 311 170 340 14 13 54 34 89 47 l63 23 28 -30 c15 -16 27 -31 27 -33z
m-6072 16 c26 -21 58 -44 72 -52 25 -13 25 -13 -20 -24 -52 -13 -51 -10 -32
-160 16 -121 16 -204 -1 -211 -20 -7 -170 64 -164 79 3 6 22 54 42 105 21 51
35 96 31 99 -8 9 -7 10 -54 -102 -42 -103 -44 -104 -97 -91 -40 10 -29 -10 13
-22 39 -12 260 -106 268 -115 3 -3 -6 -23 -20 -46 -14 -22 -26 -43 -26 -46 0
-3 -7 -16 -16 -30 l-15 -23 -97 40 c-179 74 -219 95 -232 127 -15 36 -10 61
42 221 46 140 76 206 107 234 20 18 112 55 139 56 7 0 34 -17 60 -39z m1332
10 c0 -23 -66 -81 -93 -81 -16 0 10 43 34 57 16 10 32 25 35 35 7 22 24 14 24
-11z m4967 8 c58 -25 115 -67 108 -79 -3 -5 -24 0 -48 10 -84 38 -107 20 -65
-49 12 -19 21 -45 20 -56 -1 -11 7 -56 18 -99 25 -97 25 -113 2 -120 -9 -3
-32 -19 -50 -36 -61 -55 -65 -47 -57 98 4 70 10 160 14 200 l7 72 -39 11 -40
10 34 29 c19 16 37 29 41 30 3 0 28 -9 55 -21z m1078 -23 c46 -25 65 -42 82
-77 33 -63 94 -312 95 -388 1 -58 -1 -66 -26 -88 -24 -20 -37 -23 -115 -23
l-88 0 5 48 c2 26 0 64 -6 85 l-10 37 84 0 c54 0 83 4 79 10 -3 6 -30 10 -60
10 l-54 0 -16 58 c-34 120 -49 162 -57 162 -12 0 -11 -5 22 -114 17 -55 30
-101 30 -103 0 -1 -24 -3 -53 -3 -54 0 -54 0 -65 39 -25 83 -11 228 35 349 18
49 22 49 118 -2z m-3303 -35 l43 -19 -29 -11 c-33 -13 -33 -11 7 -161 21 -81
49 -249 42 -257 -3 -5 -210 48 -223 56 -10 6 -3 35 28 121 22 62 40 118 40
124 0 27 -22 -18 -58 -119 -42 -119 -39 -116 -114 -101 -21 4 -38 3 -38 -2 0
-4 48 -21 107 -35 59 -15 108 -29 110 -31 3 -3 -36 -157 -42 -164 -5 -5 -191
41 -217 54 -36 19 -51 48 -50 100 2 80 85 362 123 415 11 16 51 44 92 63 l71
35 33 -25 c18 -13 52 -33 75 -43z m-3925 37 c-3 -8 -6 -5 -6 6 -1 11 2 17 5
13 3 -3 4 -12 1 -19z m2177 11 l38 -11 -5 -46 c-4 -26 -9 -91 -13 -144 -4 -54
-8 -98 -9 -98 -2 0 -16 7 -31 15 -42 22 -84 18 -127 -10 -42 -29 -47 -52 -14
-64 13 -5 23 -18 24 -31 1 -13 13 -35 26 -49 l24 -26 -41 -60 c-70 -101 -71
-97 -70 196 2 305 4 326 42 332 54 8 118 7 156 -4z m2266 2 c0 -5 -11 -11 -25
-13 -24 -5 -32 2 -18 15 9 10 43 8 43 -2z m2573 -102 l-36 -105 -91 4 c-50 2
-93 6 -95 8 -2 1 2 26 9 54 10 43 16 51 31 47 12 -3 19 0 19 9 0 8 -5 14 -11
14 -13 0 -2 40 17 60 13 13 15 12 20 -6 5 -19 11 -21 47 -17 23 3 60 13 82 23
22 9 41 17 42 16 1 -1 -14 -49 -34 -107z m-5985 66 c7 -14 12 -29 12 -33 -1
-10 -40 38 -40 49 0 18 17 8 28 -16z m287 -11 c65 -30 93 -67 152 -199 88
-195 90 -234 17 -305 l-46 -45 -16 25 c-23 34 -64 75 -82 83 -25 10 53 77 90
77 16 0 30 5 30 10 0 14 -41 12 -72 -4 -26 -14 -26 -14 -51 43 -14 31 -35 79
-47 106 -12 28 -24 44 -27 37 -3 -7 11 -48 30 -91 57 -124 57 -119 -12 -180
-35 -29 -61 -61 -61 -71 0 -17 -26 -40 -44 -40 -16 0 -5 309 17 460 1 10 -14
20 -43 29 -40 13 -42 15 -25 25 11 6 33 26 50 43 35 38 55 38 140 -3z m5470
-6 c-13 -24 -29 -63 -37 -88 l-13 -45 -3 54 c-3 49 0 57 29 87 44 46 52 43 24
-8z m-5795 20 c0 -7 9 -24 20 -38 l19 -25 -47 -10 -47 -10 -12 -69 c-7 -38
-16 -127 -21 -200 l-7 -131 -23 58 c-26 69 -29 151 -6 226 13 47 13 74 -1 60
-17 -17 -37 -141 -32 -197 l6 -63 -22 16 c-12 8 -31 15 -42 14 -20 0 -20 0 0
-9 19 -7 19 -8 -5 -18 -26 -10 -70 -52 -55 -52 5 0 18 8 29 19 34 31 60 34 89
10 35 -27 34 -39 -1 -39 -33 0 -57 -23 -67 -63 -4 -15 -12 -26 -18 -24 -18 6
-57 88 -57 119 0 38 69 220 117 311 34 64 44 75 93 99 60 30 90 35 90 16z
m3150 -36 c19 -16 54 -62 77 -102 34 -60 40 -77 32 -97 -13 -34 -12 -133 1
-113 5 8 10 27 10 43 0 32 4 33 30 7 11 -11 40 -26 65 -32 53 -14 55 -25 23
-100 -25 -59 -52 -73 -107 -58 l-38 10 -11 118 c-10 99 -24 171 -48 241 -2 8
-7 12 -10 9 -3 -3 4 -40 15 -83 25 -93 41 -375 23 -375 -8 0 -12 28 -12 85 0
99 -34 306 -62 382 -16 44 -24 54 -51 61 -22 6 -33 15 -35 30 -3 19 -1 20 29
12 18 -6 49 -23 69 -38z m-4054 -27 c19 -29 32 -101 16 -91 -6 3 -12 -2 -14
-11 -3 -10 -8 5 -12 33 -7 48 -11 53 -47 69 -44 20 -43 19 -28 46 10 19 10 19
40 -2 16 -11 37 -31 45 -44z m5063 9 c30 -38 41 -85 48 -204 6 -94 9 -107 30
-123 28 -22 30 -47 4 -47 -10 0 -30 -11 -43 -25 l-25 -25 5 185 c3 135 2 185
-7 185 -7 0 -11 -35 -11 -113 0 -143 -10 -267 -22 -267 -5 0 -6 78 -2 183 8
213 1 252 -47 262 -31 7 -35 15 -18 32 15 15 59 -6 88 -43z m894 35 c31 -8 36
-14 33 -32 -8 -39 -17 -180 -17 -279 l0 -97 -33 -25 c-24 -18 -37 -39 -45 -71
-16 -63 -47 -77 -96 -44 -20 14 -35 32 -35 44 0 17 2 17 10 5 8 -12 10 -9 10
13 0 17 -5 27 -15 27 -23 0 -28 59 -20 218 11 213 15 235 45 243 39 11 121 10
163 -2z m205 -49 c45 -21 82 -42 82 -44 0 -3 -14 -13 -32 -22 -30 -15 -34 -15
-65 1 -29 16 -63 52 -87 93 -13 21 17 13 102 -28z m-2175 14 c28 -7 38 -24 12
-24 -16 0 -20 -12 -8 -23 3 -4 12 -2 19 4 9 7 15 2 22 -23 22 -71 23 -88 7
-88 -8 0 -15 -4 -15 -10 0 -5 8 -10 18 -10 16 0 21 -13 30 -82 27 -195 26
-242 -1 -220 -7 5 -19 9 -27 9 -8 0 -41 7 -72 17 l-58 17 0 49 c0 57 -32 231
-56 302 -8 26 -14 53 -12 59 5 16 69 38 93 33 11 -3 32 -7 48 -10z m-4066 -10
c43 -17 57 -34 28 -34 -8 0 -15 -5 -15 -11 0 -6 9 -9 20 -6 16 4 20 -2 27 -42
9 -50 7 -342 -2 -379 -5 -22 -6 -22 -65 18 -104 71 -112 81 -104 137 5 43 -6
177 -22 269 -5 30 -3 33 38 47 23 9 45 16 48 16 2 1 24 -6 47 -15z m5070 4
c34 -12 41 -22 23 -33 -5 -3 -10 -1 -10 6 0 10 -3 10 -11 2 -14 -14 -1 -36 17
-29 11 4 14 -7 14 -54 0 -49 -3 -58 -15 -54 -9 4 -15 0 -15 -10 0 -10 6 -13
15 -10 12 5 15 -6 15 -66 0 -67 -1 -71 -20 -65 -14 5 -20 2 -20 -10 0 -12 5
-15 21 -10 19 6 21 4 16 -16 -4 -13 -7 -33 -7 -43 0 -15 -14 -6 -59 37 -33 32
-66 57 -74 57 -13 0 -15 19 -14 118 0 64 -3 131 -7 149 -6 28 -5 32 16 36 45
8 82 7 115 -5z m1313 -12 c25 -9 47 -30 76 -73 l42 -61 -20 -34 c-20 -32 -21
-32 -29 -11 -4 12 -18 27 -29 33 -16 9 -20 18 -16 36 4 16 0 30 -13 43 -10 10
-20 24 -23 32 -2 7 -26 21 -54 30 l-49 17 40 0 c22 0 56 -5 75 -12z m-5255
-20 c30 -9 40 -17 38 -32 -1 -10 -7 -62 -14 -114 -7 -60 -9 -144 -4 -227 l7
-133 -26 0 c-16 0 -26 -6 -26 -15 0 -8 5 -15 10 -15 6 0 4 -13 -5 -30 -11 -20
-25 -31 -49 -35 -51 -10 -68 -3 -93 35 -21 29 -22 35 -8 42 18 11 20 29 3 26
-7 -2 -20 13 -30 32 -23 45 -24 222 -3 360 8 52 15 98 15 102 0 17 132 20 185
4z m3169 5 c13 -20 -7 -41 -38 -41 -40 0 -69 36 -33 43 40 8 66 7 71 -2z m286
2 c0 -5 -7 -16 -14 -25 -10 -14 -28 -18 -71 -18 l-58 0 23 25 c19 20 33 25 72
25 26 0 48 -3 48 -7z m2124 -95 c-9 -139 -11 -143 -51 -109 l-32 26 41 93 c23
50 43 92 45 92 1 0 0 -46 -3 -102z m-431 -21 c9 -15 30 -33 46 -38 25 -9 31
-18 40 -60 17 -77 14 -122 -9 -147 -28 -30 -40 -28 -40 8 0 19 -11 42 -31 65
l-31 35 26 0 c14 0 26 5 26 11 0 8 -14 10 -44 6 l-43 -6 -22 82 c-31 117 -30
118 22 93 24 -12 51 -34 60 -49z m-2009 38 c-4 -8 -10 -12 -15 -9 -14 8 -10
24 6 24 9 0 12 -6 9 -15z m242 -47 c-47 -85 -58 -129 -41 -162 14 -26 14 -26
-26 -26 -37 0 -40 2 -33 23 3 12 13 34 20 49 25 48 29 116 9 138 -25 28 -10
40 51 40 l55 0 -35 -62z m-2866 37 c6 -8 9 -19 5 -25 -10 -17 -32 -11 -38 9
-8 32 12 42 33 16z m4670 0 c-14 -17 -30 -20 -30 -6 0 5 8 12 18 14 9 3 19 5
21 6 2 0 -2 -6 -9 -14z m70 -1 c0 -25 -20 -54 -37 -54 -14 0 -13 4 5 23 17 18
19 26 10 35 -9 9 -8 12 5 12 9 0 17 -7 17 -16z m-1994 -37 l46 0 -6 -44 c-3
-25 -8 -49 -12 -54 -14 -24 -104 1 -137 39 -16 18 -17 25 -6 60 l12 41 28 -21
c19 -15 43 -21 75 -21z m-4277 -138 c1 -66 1 -67 49 -110 26 -25 58 -53 72
-63 20 -14 22 -19 10 -24 -8 -3 -30 -21 -48 -39 -32 -35 -33 -35 -75 -21 -39
12 -42 15 -41 48 1 19 5 114 10 210 7 138 10 163 15 120 4 -30 7 -85 8 -121z
m6481 96 c26 -32 -53 -145 -102 -145 -8 0 -27 13 -43 30 l-29 30 40 37 c22 21
46 53 53 70 l13 33 28 -20 c15 -10 33 -26 40 -35z m-5066 19 c10 -4 16 -18 16
-38 l0 -31 -25 30 c-34 42 -32 55 9 39z m70 -3 c3 -5 15 -7 26 -4 14 4 20 0
20 -10 0 -34 -12 -47 -46 -47 -32 0 -34 2 -34 35 0 34 20 49 34 26z m4834 -22
c12 -18 11 -24 -7 -43 -12 -12 -21 -27 -21 -34 0 -14 59 -82 71 -82 5 0 39
-25 76 -56 36 -31 78 -60 94 -66 l29 -10 0 -103 c0 -138 -6 -165 -36 -165 -17
0 -24 6 -24 20 0 16 -7 20 -32 20 -18 0 -41 9 -53 20 -12 11 -37 22 -56 23
-19 1 -40 10 -47 20 -18 24 -68 22 -82 -3 -9 -17 -17 -19 -55 -13 -28 3 -50 1
-59 -6 -11 -9 -14 -1 -18 48 -8 108 -2 127 47 151 24 12 64 40 89 64 41 38 46
47 46 87 0 24 -5 61 -11 82 -6 22 -8 45 -5 53 8 21 39 17 54 -7z m-4271 -25
c13 -8 30 -25 39 -39 9 -14 22 -25 30 -25 22 0 25 -18 9 -51 -13 -24 -21 -30
-38 -25 -12 3 -39 6 -59 6 -49 0 -89 34 -92 78 -2 27 2 34 21 38 36 9 28 27
-9 20 -31 -5 -32 -5 -13 9 22 17 76 12 112 -11z m243 -16 c17 -28 18 -35 6
-47 -19 -18 -80 -7 -108 21 l-21 21 23 19 c36 29 77 24 100 -14z m960 -87 c0
-98 -3 -121 -17 -132 -21 -18 -214 -25 -272 -9 -36 10 -41 14 -35 32 3 12 7
68 7 125 l0 103 158 0 159 0 0 -119z m-1340 89 c0 -5 -5 -10 -11 -10 -5 0 -7
5 -4 10 3 6 8 10 11 10 2 0 4 -4 4 -10z m4638 -21 l33 -30 -7 -82 c-3 -45 -8
-85 -11 -89 -7 -13 -57 13 -111 59 l-53 46 26 17 c30 19 75 78 75 97 0 20 12
15 48 -18z m-4854 -2 c23 -17 35 -82 23 -119 -12 -38 -22 -35 -25 8 -3 41 -8
54 -24 54 -8 0 -9 -29 -4 -96 4 -64 3 -93 -4 -89 -5 3 -10 37 -10 75 0 37 -3
75 -6 84 -8 21 -24 10 -25 -17 0 -12 -3 -16 -6 -9 -9 22 -20 13 -15 -13 2 -14
8 -25 13 -25 5 0 9 -7 9 -17 0 -13 -4 -11 -20 7 -24 27 -26 72 -5 90 8 7 15
19 15 28 0 21 29 52 50 52 9 0 24 -6 34 -13z m466 -2 c0 -8 -9 -15 -20 -15
-20 0 -26 11 -13 23 12 13 33 7 33 -8z m1140 5 c-20 -13 -33 -13 -25 0 3 6 14
10 23 10 15 0 15 -2 2 -10z m-1744 -21 c15 -16 16 -24 6 -39 -19 -31 -14 -74
13 -114 l24 -36 -37 0 c-20 0 -68 -3 -106 -7 l-70 -6 23 31 c41 59 45 103 16
175 -6 15 0 17 52 17 48 0 64 -4 79 -21z m3118 11 l26 -10 -20 -37 c-11 -21
-20 -52 -20 -70 0 -29 -3 -33 -28 -33 -48 0 -66 21 -59 69 10 79 42 104 101
81z m915 -11 l35 -21 -32 -13 c-39 -17 -75 -71 -67 -102 7 -31 -9 -29 -34 3
-30 39 -27 85 8 123 34 37 45 38 90 10z m-3248 -23 c-10 -26 -21 -32 -34 -19
-4 3 3 17 15 30 26 28 32 25 19 -11z m-87 -35 c-24 -57 -33 -91 -34 -128 0
-24 -3 -43 -6 -43 -20 0 -86 48 -90 66 -8 30 14 105 38 130 19 21 21 21 59 6
30 -11 38 -19 33 -31z m3889 25 c27 -25 50 -88 40 -112 -5 -13 -53 -44 -68
-44 -3 0 -5 8 -5 19 0 38 -24 84 -53 101 l-29 18 38 21 c49 25 46 25 77 -3z
m-1335 4 c30 0 44 -8 84 -50 57 -59 65 -91 10 -37 -48 47 -63 48 -27 1 34 -44
25 -58 -10 -15 -34 40 -53 41 -25 1 24 -34 13 -41 -15 -10 -22 24 -31 19 -15
-9 17 -32 0 -25 -48 19 -47 43 -68 50 -75 23 -3 -13 -5 -12 -6 5 0 13 6 37 15
54 14 26 19 29 46 24 17 -3 47 -6 66 -6z m2039 -22 c52 -21 53 -22 53 -64 l0
-42 -47 -6 c-27 -4 -56 -9 -65 -12 -10 -3 -32 9 -56 31 -22 19 -47 35 -56 35
-32 0 -5 20 34 26 37 6 69 28 58 39 -3 3 -24 -2 -48 -10 -52 -18 -66 -12 -19
9 48 21 86 19 146 -6z m-1184 -36 c21 -22 39 -51 42 -70 3 -17 7 -45 10 -62 7
-47 -11 -35 -24 15 -6 25 -14 45 -17 45 -4 0 -3 -20 0 -45 8 -52 3 -57 -18
-17 -15 27 -15 27 -16 3 0 -20 -2 -21 -15 -11 -8 7 -15 22 -16 34 -1 19 -2 18
-9 -4 -7 -23 -8 -21 -9 12 -1 42 -9 68 -22 68 -5 0 -9 -8 -9 -17 -1 -17 -1
-17 -11 -1 -12 21 1 50 33 72 32 23 40 20 81 -22z m1363 27 c4 -7 9 -41 11
-78 6 -87 -5 -104 -67 -95 l-45 6 -1 89 -1 89 48 0 c26 0 51 -5 55 -11z
m-5256 -162 c-4 -5 -23 -7 -41 -5 -44 4 -51 38 -17 77 13 14 30 40 38 56 14
29 14 29 21 -45 3 -41 3 -79 -1 -83z m1618 91 l3 -48 -60 0 -61 0 0 43 c0 24
3 47 7 51 4 4 30 6 58 4 l50 -3 3 -47z m1049 31 l64 -21 -6 -42 c-4 -22 -8
-42 -9 -43 0 -1 -85 -5 -188 -9 l-188 -7 0 32 c0 17 1 31 3 31 1 0 18 -4 37
-10 52 -15 96 3 119 49 17 33 24 37 61 39 23 2 71 -7 107 -19z m1621 5 c29
-20 28 -48 -3 -62 -14 -6 -33 -27 -42 -47 -9 -19 -21 -35 -25 -35 -5 0 -6 6
-3 13 4 6 0 4 -8 -5 -8 -10 -17 -18 -20 -18 -4 0 -4 8 -1 18 4 13 1 12 -14 -5
-11 -13 -27 -23 -36 -23 -20 0 -20 2 -1 47 20 46 19 50 -5 28 -25 -23 -25 -15
1 29 15 26 35 41 72 55 64 25 58 24 85 5z m-4008 -12 c0 -4 -24 -32 -54 -61
-38 -38 -60 -52 -76 -49 -21 3 -20 5 16 61 35 53 41 57 76 57 21 0 38 -4 38
-8z m45 -29 c3 -16 12 -41 21 -57 13 -26 13 -30 -3 -42 -27 -20 -34 -17 -27
14 l5 27 -24 -27 c-21 -22 -26 -24 -31 -11 -4 10 -15 14 -36 11 -17 -3 -30 -2
-30 1 1 3 25 26 55 50 30 24 52 48 49 53 -3 4 -1 8 5 8 6 0 13 -12 16 -27z
m3073 15 c22 -22 13 -28 -43 -28 -56 0 -69 11 -37 29 23 14 65 14 80 -1z
m-1340 -19 c26 -10 25 -26 -8 -123 l-17 -51 -44 4 c-24 1 -48 5 -53 8 -10 7
-2 58 19 131 16 53 17 53 48 46 18 -3 42 -10 55 -15z m932 -19 c64 -55 52 -61
-111 -58 l-134 3 1 38 c1 21 4 40 7 44 4 3 24 -2 47 -11 57 -23 107 -21 120 4
14 27 18 26 70 -20z m-3998 3 c25 -27 66 -139 55 -150 -3 -3 -15 12 -27 34
l-21 38 5 -55 5 -55 -19 24 c-11 13 -20 29 -20 37 0 8 -5 14 -11 14 -6 0 -8
-7 -5 -15 19 -47 18 -48 -12 -20 -24 23 -32 39 -32 67 0 20 -5 38 -11 40 -17
6 7 47 34 58 31 13 31 13 59 -17z m479 0 c17 -15 38 -43 46 -62 14 -33 14 -35
-14 -57 -15 -13 -30 -23 -33 -23 -3 0 -18 21 -35 46 -16 26 -39 51 -50 57 -11
6 -22 12 -24 14 -10 5 44 52 60 52 10 0 32 -12 50 -27z m-1337 -62 c32 -28 68
-121 47 -121 -6 0 -13 16 -17 35 -8 46 -24 45 -25 -2 -1 -22 -3 -29 -6 -18 -7
28 -23 43 -23 22 0 -11 -8 -17 -25 -17 -16 0 -25 6 -25 16 0 8 -13 29 -30 47
-35 37 -35 38 -15 77 l15 30 43 -26 c23 -15 50 -34 61 -43z m4073 19 c64 -18
76 -26 112 -72 52 -64 53 -87 2 -31 -42 47 -53 47 -45 -1 5 -29 5 -30 -10 -12
-13 16 -18 17 -31 6 -25 -21 -76 -4 -117 40 -22 22 -36 46 -33 55 3 8 7 22 10
31 3 9 12 13 22 10 10 -2 50 -14 90 -26z m983 21 c0 -5 -9 -7 -19 -4 -12 3
-23 -2 -29 -14 -12 -22 -6 -35 26 -52 16 -9 22 -19 19 -32 -3 -10 -1 -19 4
-19 5 0 9 -7 9 -15 0 -12 -15 -15 -75 -15 -78 0 -93 9 -50 28 33 15 32 27 -6
62 -39 35 -33 56 16 58 21 1 40 4 43 7 9 9 62 5 62 -4z m495 -91 c0 -91 -1
-95 -25 -107 -26 -13 -392 -19 -424 -7 -13 5 -16 25 -16 110 l0 104 233 -2
232 -3 0 -95z m623 41 c4 -42 -8 -51 -73 -50 -50 0 -50 0 -23 15 15 8 35 28
43 45 21 41 49 35 53 -10z m-6371 -61 c12 0 27 8 32 18 8 13 10 5 11 -36 l0
-53 -57 6 c-68 8 -166 29 -206 44 -27 11 -28 14 -22 54 4 23 9 45 11 48 2 4
50 -13 106 -37 57 -24 113 -44 125 -44z m1474 48 c9 -18 8 -24 -9 -37 -11 -9
-25 -33 -31 -53 -15 -46 -41 -71 -41 -38 0 30 -22 21 -40 -18 -27 -57 -38 -31
-14 32 3 9 1 16 -5 16 -6 0 -17 -21 -25 -47 -12 -40 -15 -43 -15 -18 1 61 32
121 84 163 54 43 73 43 96 0z m1774 14 c-39 -4 -51 1 -41 16 3 6 20 5 42 -2
l36 -11 -37 -3z m331 13 c17 -13 13 -14 -46 -14 -54 1 -59 2 -32 9 18 4 36 10
39 14 9 9 17 7 39 -9z m124 0 c11 -13 6 -15 -35 -15 -41 0 -46 2 -35 15 7 8
23 15 35 15 12 0 28 -7 35 -15z m-1985 -9 c17 0 71 3 120 6 71 6 82 5 53 -3
-22 -6 -38 -17 -38 -26 0 -8 -4 -12 -9 -8 -5 3 -12 1 -16 -5 -9 -14 -202 -13
-211 1 -9 16 37 50 56 42 8 -4 29 -7 45 -7z m3530 4 c3 -5 -1 -10 -9 -10 -9 0
-16 5 -16 10 0 6 4 10 9 10 6 0 13 -4 16 -10z m565 2 c0 -4 -9 -8 -20 -9 -11
-1 -20 2 -20 8 0 5 9 9 20 9 11 0 20 -4 20 -8z m-5335 -34 c51 -32 101 -75 94
-82 -3 -3 -22 6 -42 20 -20 13 -37 20 -37 14 0 -14 -35 -12 -75 4 -39 17 -43
27 -19 50 21 21 36 20 79 -6z m1983 13 c10 -6 4 -14 -22 -29 -38 -23 -48 -12
-19 20 18 20 22 21 41 9z m3698 -39 c-23 -24 -31 -7 -9 21 14 19 19 22 21 10
2 -8 -3 -22 -12 -31z m-1536 29 c0 -9 -199 -22 -213 -14 -4 2 -5 9 -2 14 8 11
215 12 215 0z m460 -126 c0 -123 -2 -135 -19 -145 -31 -16 -335 -13 -376 4
-31 13 -35 19 -35 53 0 55 11 113 21 113 5 0 9 -27 9 -59 0 -33 5 -63 10 -66
6 -4 10 22 10 69 0 74 -1 76 -25 76 -23 0 -25 4 -25 45 l0 45 215 0 215 0 0
-135z m1000 94 c0 -13 -24 -11 -38 3 -7 7 -12 18 -12 25 0 10 6 10 25 -3 14
-9 25 -20 25 -25z m1324 35 c18 -7 22 -44 5 -44 -15 0 -69 33 -69 42 0 9 42
11 64 2z m-5117 -33 c-4 -19 -2 -31 6 -34 20 -6 14 -127 -7 -160 -18 -26 -22
-27 -115 -29 -184 -4 -275 2 -288 20 -9 10 -13 53 -13 124 l0 108 211 0 212 0
-6 -29z m213 9 c-11 -20 -30 -28 -30 -12 0 11 22 32 32 32 5 0 4 -9 -2 -20z
m60 11 c0 -9 -41 -23 -48 -16 -2 2 -1 8 3 14 8 13 45 15 45 2z m3365 -1 c3 -5
2 -10 -4 -10 -5 0 -13 5 -16 10 -3 6 -2 10 4 10 5 0 13 -4 16 -10z m-5845 -29
c0 -23 17 -37 66 -55 l39 -15 -69 0 c-66 -1 -68 0 -62 22 3 12 6 35 6 50 0 16
4 26 10 22 6 -3 10 -14 10 -24z m3738 1 l3 -22 -308 2 -308 3 -3 23 -3 22 308
-2 308 -3 3 -23z m1312 18 c0 -5 -5 -10 -11 -10 -5 0 -7 5 -4 10 3 6 8 10 11
10 2 0 4 -4 4 -10z m-2760 -15 c0 -16 -38 -40 -48 -30 -4 4 4 15 17 26 28 23
31 23 31 4z m1535 -1 c17 -4 48 -15 70 -24 22 -10 60 -20 85 -21 42 -4 46 -2
59 29 14 30 41 45 41 22 0 -5 -5 -10 -11 -10 -6 0 -3 -8 6 -17 13 -12 15 -26
11 -52 -3 -20 -6 -44 -6 -53 0 -15 -10 -18 -67 -18 -71 0 -152 11 -222 30 -39
10 -41 13 -41 48 0 57 10 83 29 78 9 -3 30 -8 46 -12z m-1255 -10 c0 -8 -5
-12 -10 -9 -6 4 -8 11 -5 16 9 14 15 11 15 -7z m1970 -2 c0 -16 -6 -17 -57
-11 -32 4 -69 8 -83 9 -24 2 -23 3 5 10 17 4 54 8 83 9 44 1 52 -2 52 -17z
m-2803 -4 c21 -8 33 -18 31 -28 -5 -23 -276 -28 -284 -5 -4 8 -1 22 6 30 16
19 197 21 247 3z m-308 -12 c9 -11 5 -15 -20 -20 -37 -7 -42 -5 -33 18 7 20
37 21 53 2z m-1064 -12 c144 -34 268 -75 258 -85 -20 -20 -155 -22 -243 -5
-46 10 -92 22 -102 27 -18 10 -23 34 -12 63 8 20 13 20 99 0z m3771 -9 c10 -8
36 -15 56 -15 20 0 39 -6 42 -12 5 -10 7 -10 12 0 8 17 27 15 20 -3 -3 -8 -9
-22 -12 -30 -4 -10 0 -15 12 -16 11 -1 3 -5 -16 -9 -45 -11 -156 -16 -152 -7
1 4 2 30 2 57 0 53 5 58 36 35z m340 0 c80 -8 97 -15 89 -38 -15 -39 -132 -67
-202 -48 -34 9 -40 15 -36 31 3 11 9 20 14 20 5 0 15 11 21 25 7 16 17 24 27
21 9 -3 48 -8 87 -11z m-1186 -1 c0 -3 -11 -15 -25 -26 -32 -25 -34 -71 -3
-92 30 -21 54 -20 78 4 27 27 25 43 -11 85 l-31 35 128 0 128 0 -27 -28 c-33
-35 -35 -75 -5 -96 29 -20 47 -20 70 1 26 23 22 62 -9 95 l-27 28 86 0 86 0 6
-43 c4 -24 4 -63 0 -85 l-7 -42 -288 0 -288 0 -13 28 c-7 15 -12 52 -10 85 l3
57 79 0 c44 0 80 -3 80 -6z m-3061 -14 c4 0 7 -10 7 -22 -1 -15 8 -27 27 -36
38 -19 25 -32 -34 -32 l-49 0 0 34 c0 47 10 68 27 62 8 -3 18 -6 22 -6z m891
-82 c0 -7 -18 6 -40 29 -22 23 -40 48 -40 55 0 7 18 -6 40 -29 22 -23 40 -48
40 -55z m3188 56 c-5 -28 -28 -29 -28 -1 0 13 3 27 7 31 10 10 25 -10 21 -30z
m-3118 -39 c0 -42 -1 -44 -19 -33 -27 16 -45 57 -28 63 6 2 19 6 27 8 8 3 16
6 18 6 1 1 2 -19 2 -44z m101 12 c-8 -8 -11 -7 -11 4 0 20 13 34 18 19 3 -7
-1 -17 -7 -23z m487 1 l3 -28 -145 0 -146 0 0 30 0 31 143 -3 142 -3 3 -27z
m1782 -13 c1 11 2 24 1 28 -1 5 4 7 11 5 7 -3 13 -16 13 -29 0 -18 -6 -25 -24
-27 -34 -5 -54 23 -39 52 11 20 12 19 24 -14 9 -25 13 -29 14 -15z m-3875 24
c4 -5 4 -37 0 -69 -6 -55 -9 -59 -37 -65 -16 -4 -32 -4 -35 -1 -3 2 4 37 16
75 20 67 40 88 56 60z m3615 -29 c5 0 10 10 10 21 0 18 3 19 15 9 11 -9 12
-17 4 -31 -19 -37 -80 -11 -64 28 6 16 8 16 16 -4 4 -13 13 -23 19 -23z
m-2484 -15 c20 -31 10 -63 -23 -71 -49 -13 -84 35 -57 75 21 29 60 27 80 -4z
m522 3 c-2 -18 -11 -24 -35 -26 -38 -4 -42 9 -10 31 32 23 49 21 45 -5z m3982
1 c0 -4 -6 -6 -14 -3 -20 8 -29 -11 -12 -25 11 -9 18 -6 34 14 19 24 25 25 99
23 l78 -3 3 -33 c4 -35 -15 -50 -45 -36 -10 4 -20 7 -23 7 -3 -1 -25 -4 -49
-7 -24 -3 -48 -3 -55 1 -6 4 -31 8 -56 8 -44 0 -45 1 -48 34 -3 25 0 32 10 29
7 -3 22 -2 33 2 22 8 45 3 45 -11z m588 4 c2 -9 -8 -13 -33 -13 -33 0 -36 2
-25 15 15 18 51 16 58 -2z m122 2 c11 -13 6 -15 -34 -15 -43 0 -55 7 -39 23
12 13 60 7 73 -8z m76 0 c18 -14 18 -14 -8 -15 -18 0 -28 5 -28 15 0 19 11 19
36 0z m1259 -113 c21 -118 20 -129 -11 -136 -15 -4 -28 -5 -31 -2 -2 2 -1 64
3 137 8 146 14 146 39 1z m-6260 78 l29 -30 -42 0 c-46 0 -58 11 -42 40 14 27
21 25 55 -10z m-725 11 c0 -42 -63 -60 -73 -22 -3 11 -2 22 1 25 9 10 72 7 72
-3z m304 3 c24 -9 9 -24 -25 -24 -29 0 -40 14 -16 23 18 8 23 8 41 1z m-84
-24 c0 -17 -7 -20 -45 -20 -51 0 -65 26 -17 33 56 8 62 7 62 -13z m307 -1
c-23 -37 4 -44 186 -49 l172 -6 -230 -2 c-210 -2 -228 -1 -207 14 12 8 22 23
22 33 0 24 5 28 39 28 26 0 28 -3 18 -18z m640 15 c-14 -15 -179 -43 -242 -42
-53 1 -58 3 -24 5 30 3 53 11 64 24 16 16 32 19 113 19 53 0 93 -3 89 -6z
m2981 0 c14 -4 22 -14 22 -28 0 -12 5 -27 12 -34 25 -25 -92 -14 -169 15 -102
38 -96 53 20 53 50 0 102 -3 115 -6z m692 -14 c0 -14 -7 -20 -22 -20 -13 0
-38 -9 -56 -20 -19 -12 -50 -20 -75 -20 l-43 0 4 40 4 40 94 0 c87 0 94 -1 94
-20z m328 8 c-6 -18 -28 -21 -28 -4 0 9 7 16 16 16 9 0 14 -5 12 -12z m152 -3
c10 -12 10 -15 -1 -15 -26 0 -59 12 -59 21 0 15 47 10 60 -6z m-5430 -10 c0
-11 -12 -15 -47 -15 -54 0 -49 16 7 23 19 2 36 5 38 5 1 1 2 -5 2 -13z m204 0
c4 -12 -3 -15 -34 -15 -38 0 -49 8 -33 23 12 13 61 7 67 -8z m546 0 c0 -11
-12 -15 -45 -15 -42 0 -54 7 -38 23 3 4 24 7 45 7 27 0 38 -4 38 -15z m230 5
c0 -5 -7 -10 -15 -10 -8 0 -15 5 -15 10 0 6 7 10 15 10 8 0 15 -4 15 -10z
m527 4 c-17 -18 -214 -55 -312 -60 l-110 -5 125 34 c93 25 148 34 214 36 49 0
87 -2 83 -5z m793 -7 c0 -6 -26 -22 -58 -35 -72 -27 -226 -32 -236 -7 -3 8
-15 15 -26 15 -13 0 -20 7 -20 20 0 19 7 20 170 20 130 0 170 -3 170 -13z
m365 -62 c-19 -33 -34 -64 -32 -70 2 -5 17 -16 35 -24 27 -12 31 -18 25 -40
-9 -41 -10 -41 -94 -41 l-79 0 0 28 c1 27 35 190 42 197 7 7 133 20 136 14 1
-3 -13 -32 -33 -64z m3285 64 c0 -5 -4 -10 -10 -14 -13 -8 -470 7 -470 15 0 4
108 7 240 7 132 -1 240 -4 240 -8z m349 -47 c160 1 293 -1 297 -5 13 -12 -927
-13 -981 0 -44 10 -26 11 142 12 160 1 194 4 207 17 9 8 16 21 16 27 1 7 7 -3
15 -21 l14 -33 290 3z m115 43 c-5 -13 -37 -15 -200 -15 -166 0 -194 2 -194
15 0 13 29 15 200 15 173 0 199 -2 194 -15z m-6544 -11 c0 -3 -13 -10 -30 -15
-16 -6 -30 -15 -30 -20 0 -5 -60 -9 -132 -8 l-133 1 136 18 c75 10 145 20 155
23 29 7 34 7 34 1z m3609 -56 c-4 -29 -8 -79 -8 -110 -1 -51 -13 -79 -28 -65
-6 6 24 204 33 218 10 17 10 9 3 -43z m-1964 32 c-3 -5 -25 -9 -48 -9 -40 1
-40 2 -12 9 44 11 67 11 60 0z m2629 -30 c44 -18 46 -21 46 -60 0 -22 -2 -40
-4 -40 -4 0 -120 50 -123 53 0 1 -4 20 -8 41 -8 38 -7 39 18 32 14 -3 46 -15
71 -26z m1321 20 c15 -6 10 -8 -18 -6 -21 2 -40 6 -44 10 -9 9 38 6 62 -4z
m-5147 -7 c-86 -2 -230 -2 -320 0 -90 1 -19 3 157 3 176 0 249 -2 163 -3z
m735 0 c-7 -2 -21 -2 -30 0 -10 3 -4 5 12 5 17 0 24 -2 18 -5z m1237 -33 c0
-39 -2 -42 -46 -60 -25 -11 -48 -20 -50 -20 -2 0 -4 19 -4 43 0 41 2 43 43 59
58 23 57 23 57 -22z m850 -235 l0 -275 -145 0 -145 0 0 68 c0 135 18 295 34
304 12 7 14 22 9 73 -4 49 -3 65 7 65 7 0 10 6 7 14 -8 21 7 24 126 25 l107 1
0 -275z m110 -50 l0 -325 -200 0 -200 0 0 40 0 40 160 0 160 0 0 285 0 285 40
0 40 0 0 -325z m101 118 c0 -115 1 -244 2 -288 l2 -80 48 -3 c46 -3 47 -4 47
-38 l0 -34 -90 0 -90 0 0 318 c0 175 3 322 7 325 3 4 21 7 40 7 l33 0 1 -207z
m86 160 c-20 -162 -20 -163 -3 -169 14 -5 16 -28 16 -170 l0 -164 -35 0 -35 0
0 275 0 275 31 0 32 0 -6 -47z m1521 40 c-10 -2 -28 -2 -40 0 -13 2 -5 4 17 4
22 1 32 -1 23 -4z m-2179 -140 c1 -25 -3 -33 -17 -33 -16 0 -17 6 -11 58 4 31
8 66 9 77 3 25 18 -58 19 -102z m2923 107 l1078 0 0 -45 0 -45 -1285 0 -1285
0 0 45 0 44 58 4 c31 3 124 3 206 1 82 -2 634 -4 1228 -4z m-3532 -45 l0 -45
-1415 0 -1415 0 0 45 0 45 1415 0 1415 0 0 -45z m703 -27 c3 -24 5 -43 4 -44
-1 -2 -14 -5 -30 -9 -27 -7 -27 -7 -27 44 0 47 2 51 24 51 20 0 24 -6 29 -42z
m1269 -18 c38 -16 78 -30 87 -30 16 0 17 -41 20 -571 2 -470 0 -570 -11 -563
-7 4 -57 48 -110 98 l-98 90 0 56 c0 30 3 99 7 154 5 87 9 99 26 104 19 5 20
12 14 321 -4 174 -9 328 -13 344 -3 15 -3 27 0 27 4 0 39 -13 78 -30z m-1871
-106 c-6 -66 -14 -221 -18 -346 l-6 -228 32 -6 c17 -4 33 -9 35 -13 3 -3 6
-74 7 -157 l3 -150 -85 -75 c-46 -41 -90 -78 -96 -83 -10 -6 -13 110 -13 563
l0 571 23 1 c12 0 45 11 72 23 28 13 51 22 53 21 2 -2 -2 -56 -7 -121z m-167
-500 c4 -317 6 -578 4 -580 -4 -3 -950 -6 -2005 -5 l-673 1 0 580 0 580 1333
0 1334 0 7 -576z m4586 -4 l0 -580 -1200 0 c-660 0 -1203 0 -1207 0 -5 0 -9
261 -11 580 l-2 580 1210 0 1210 0 0 -580z m-3240 4 c0 -47 3 -57 20 -61 16
-4 19 -12 15 -47 -19 -161 -31 -606 -17 -606 4 0 7 -29 7 -65 l0 -65 -290 0
-290 0 -1 238 c-2 205 -14 396 -40 610 l-7 52 302 0 301 0 0 -56z m-830 -189
c12 -71 35 -218 50 -325 31 -220 36 -199 -54 -236 -48 -19 -51 -22 -51 -57 0
-24 -5 -37 -13 -37 -15 0 -15 10 12 270 8 80 18 233 22 340 4 107 9 191 10
185 1 -5 12 -68 24 -140z m4180 108 c0 -10 7 -90 15 -178 8 -88 17 -218 21
-290 3 -71 10 -142 16 -157 8 -22 5 -33 -16 -65 -14 -20 -26 -46 -26 -55 0
-14 -8 -18 -37 -18 l-38 0 1 63 c0 34 3 69 6 77 4 8 11 132 18 275 12 293 18
365 31 365 5 0 9 -8 9 -17z m-3009 -313 c6 -168 15 -307 19 -310 5 -3 10 -35
12 -73 l3 -67 -47 0 c-44 0 -48 2 -48 25 0 14 -14 41 -33 62 -27 31 -32 43
-26 63 4 14 24 149 44 300 33 244 48 320 60 308 2 -2 9 -141 16 -308z m276
-42 c18 -17 23 -32 23 -75 0 -50 -1 -53 -25 -53 -23 0 -25 3 -25 53 0 28 -3
62 -6 75 -8 28 3 28 33 0z m-1737 -69 c0 -57 -1 -60 -22 -57 -19 2 -24 10 -26
41 -2 26 2 45 14 58 28 31 34 23 34 -42z m1930 -104 c17 -8 19 -23 22 -122 l3
-113 -52 0 c-49 0 -53 2 -53 24 0 29 -14 41 -69 61 -23 8 -54 23 -69 34 -25
17 -27 23 -24 81 4 59 5 61 27 56 13 -3 35 -2 49 4 22 8 26 16 26 51 l0 41 60
-54 c34 -29 70 -57 80 -63z m-1964 25 l34 0 0 -64 c0 -58 -3 -67 -26 -85 -14
-11 -41 -23 -59 -27 -41 -7 -69 -36 -62 -64 5 -18 0 -20 -46 -20 l-52 0 3 115
c3 100 5 115 20 115 9 0 44 25 77 54 l60 54 9 -39 c8 -36 12 -39 42 -39z
m-2736 -136 l0 -105 -32 3 -33 3 -3 103 -3 102 36 0 35 0 0 -106z m40 4 c0
-70 -3 -98 -10 -88 -13 20 -13 190 0 190 6 0 10 -41 10 -102z m362 55 l3 -48
55 0 55 0 3 48 3 47 297 0 c313 -1 309 0 232 -42 -25 -14 -31 -23 -28 -45 5
-41 39 -49 145 -34 138 19 138 19 141 74 l3 47 40 0 39 0 -15 -36 c-20 -48
-19 -67 5 -89 15 -14 31 -17 72 -13 65 7 98 39 98 99 l0 39 420 0 420 0 0 -99
c0 -55 3 -106 6 -115 6 -15 -97 -16 -1116 -16 -692 0 -1119 4 -1115 9 3 6 43
7 93 4 100 -6 135 4 130 40 -2 15 -19 30 -55 47 -72 35 -93 57 -93 97 l0 33
79 0 80 0 3 -47z m88 12 c0 -33 -2 -35 -35 -35 -32 0 -35 3 -35 28 0 16 3 32
7 35 3 4 19 7 35 7 25 0 28 -3 28 -35z m2000 -60 c0 -52 0 -98 0 -102 0 -5
-15 -9 -35 -11 l-35 -3 0 105 0 106 35 0 35 0 0 -95z m2340 -10 l0 -105 -30 0
-30 0 0 105 0 105 30 0 30 0 0 -105z m188 60 c4 -49 30 -79 88 -101 51 -19
107 -12 127 16 12 17 25 19 138 17 l124 -2 0 30 c0 26 -7 33 -55 57 l-55 27
284 0 284 1 -34 -23 c-26 -17 -34 -30 -34 -52 l0 -30 101 2 c134 3 154 11 154
63 l0 40 45 0 45 0 -2 -40 c-2 -57 22 -80 84 -80 66 0 91 24 82 80 -6 39 -6
40 25 40 29 0 31 -2 31 -39 0 -49 17 -63 72 -59 l43 3 3 48 3 47 185 0 184 0
0 -64 0 -64 -32 -7 c-18 -4 -46 -14 -62 -22 -23 -12 -27 -20 -24 -44 l5 -29
-986 0 -986 0 3 115 3 116 77 -3 77 -3 3 -40z m182 30 c0 -8 -2 -15 -4 -15 -2
0 -6 7 -10 15 -3 8 -1 15 4 15 6 0 10 -7 10 -15z m1340 -10 c0 -14 0 -28 0
-32 0 -5 -12 -8 -27 -8 -19 0 -29 6 -31 18 -6 30 6 47 33 47 20 0 25 -5 25
-25z m520 -80 l0 -105 -35 0 -35 0 0 105 0 105 35 0 35 0 0 -105z"/>
<path d="M2058 5523 c6 -3 9 -10 5 -16 -4 -6 0 -8 10 -4 10 3 17 2 17 -3 0 -6
5 -10 10 -10 20 0 -12 36 -34 37 -11 1 -15 -1 -8 -4z"/>
<path d="M6171 5017 c-17 -17 -14 -28 21 -64 l32 -33 -37 -38 c-42 -43 -47
-68 -16 -77 16 -5 31 2 61 31 37 36 41 38 52 20 42 -69 77 -84 109 -48 31 34
18 60 -46 92 l-28 14 40 34 c33 27 39 37 31 52 -18 34 -41 33 -80 -5 l-36 -36
-20 22 c-30 33 -69 50 -83 36z m99 -79 c37 -35 79 -71 94 -82 25 -16 26 -20
13 -34 -21 -20 -42 -10 -62 32 -9 19 -41 58 -71 86 -30 28 -54 53 -54 56 0 12
20 -2 80 -58z m100 53 c0 -13 -60 -55 -67 -47 -9 8 37 56 54 56 7 0 13 -4 13
-9z m-150 -136 c-18 -19 -38 -31 -43 -28 -6 4 6 21 28 40 49 42 59 34 15 -12z"/>
<path d="M6335 4840 c3 -5 10 -10 16 -10 5 0 9 5 9 10 0 6 -7 10 -16 10 -8 0
-12 -4 -9 -10z"/>
<path d="M4654 4994 c-52 -36 -63 -52 -64 -96 0 -31 7 -42 49 -77 50 -42 93
-53 108 -27 4 8 26 16 48 18 33 2 41 7 43 27 2 13 -1 28 -7 34 -6 6 -11 25
-11 42 0 37 -22 70 -60 90 -41 21 -62 19 -106 -11z m120 -35 c33 -39 33 -48
-4 -60 -30 -11 -41 -41 -20 -54 17 -11 11 -25 -11 -25 -11 0 -17 -4 -14 -10 7
-12 -15 -13 -33 -2 -7 5 -10 16 -7 24 5 12 -3 18 -32 25 -54 12 -58 50 -10 98
47 47 94 48 131 4z m32 -93 c15 -12 16 -17 7 -27 -10 -10 -15 -9 -28 1 -16 13
-21 40 -7 40 5 0 17 -6 28 -14z"/>
<path d="M7163 4785 c-13 -9 -23 -22 -23 -30 0 -23 20 -28 40 -10 10 9 24 14
29 10 18 -10 12 -44 -9 -55 -22 -12 -28 -60 -7 -59 6 0 27 18 45 41 33 41 35
67 8 95 -20 21 -60 25 -83 8z"/>
<path d="M7188 4613 c-28 -7 -22 -33 7 -33 15 0 25 6 25 14 0 18 -10 24 -32
19z"/>
<path d="M4801 4342 c-33 -47 -34 -73 -6 -125 31 -59 31 -60 0 -93 -14 -15
-25 -37 -25 -50 0 -28 20 -74 32 -74 11 0 10 28 -2 35 -17 10 -11 50 10 75 24
27 26 86 5 114 -21 28 -19 79 5 109 22 28 25 37 11 37 -5 0 -19 -13 -30 -28z"/>
<path d="M4887 4281 c-24 -40 -21 -78 9 -134 27 -52 26 -72 -8 -118 -11 -15
-18 -35 -16 -45 5 -18 5 -18 13 1 5 11 19 35 32 54 29 43 29 57 -2 115 -30 57
-32 95 -5 124 23 25 25 32 7 32 -7 0 -20 -13 -30 -29z"/>
<path d="M4970 4180 c0 -12 9 -39 20 -61 23 -45 20 -65 -16 -108 -13 -16 -20
-32 -15 -35 12 -8 59 49 68 82 4 17 -1 39 -15 66 -12 23 -22 49 -22 59 0 9 -4
17 -10 17 -5 0 -10 -9 -10 -20z"/>
<path d="M8565 4530 c-4 -6 12 -10 39 -10 25 0 46 5 46 10 0 6 -18 10 -39 10
-22 0 -43 -4 -46 -10z"/>
<path d="M8590 4485 c0 -8 3 -15 6 -15 3 0 12 7 20 15 14 13 13 15 -5 15 -12
0 -21 -6 -21 -15z"/>
<path d="M3754 4535 c-18 -13 -18 -14 -1 -15 10 0 15 -5 12 -10 -8 -13 14 -42
26 -34 5 3 6 16 3 30 -5 20 -2 24 16 24 11 0 18 5 15 10 -9 15 -48 12 -71 -5z"/>
<path d="M3745 4420 c-3 -5 -1 -10 4 -10 6 0 11 5 11 10 0 6 -2 10 -4 10 -3 0
-8 -4 -11 -10z"/>
<path d="M3703 4388 c2 -8 20 -13 42 -13 22 0 40 5 43 13 2 8 -10 12 -43 12
-33 0 -45 -4 -42 -12z"/>
<path d="M3720 4350 c0 -5 7 -7 15 -4 8 4 15 8 15 10 0 2 -7 4 -15 4 -8 0 -15
-4 -15 -10z"/>
<path d="M5650 4502 c0 -4 18 -9 41 -11 26 -1 38 2 34 9 -7 12 -75 14 -75 2z"/>
<path d="M5670 4455 c0 -8 7 -15 15 -15 8 0 15 7 15 15 0 8 -7 15 -15 15 -8 0
-15 -7 -15 -15z"/>
<path d="M7675 4470 c-4 -6 8 -10 30 -10 22 0 34 4 30 10 -3 6 -17 10 -30 10
-13 0 -27 -4 -30 -10z"/>
<path d="M7600 4442 c21 -7 26 -15 28 -50 2 -32 7 -42 20 -42 11 0 13 3 5 8
-6 4 -13 25 -15 47 -3 37 -6 40 -33 42 -28 2 -28 1 -5 -5z"/>
<path d="M7692 4429 c2 -6 8 -10 13 -10 5 0 11 4 13 10 2 6 -4 11 -13 11 -9 0
-15 -5 -13 -11z"/>
<path d="M7590 4419 c0 -5 5 -7 10 -4 6 3 10 8 10 11 0 2 -4 4 -10 4 -5 0 -10
-5 -10 -11z"/>
<path d="M7602 4325 c16 -17 68 -22 85 -9 16 12 12 13 -36 14 -30 0 -52 -2
-49 -5z"/>
<path d="M1550 4440 c0 -5 5 -10 11 -10 5 0 8 -4 4 -9 -3 -5 -1 -12 5 -16 11
-7 13 5 4 29 -7 18 -24 22 -24 6z"/>
<path d="M1692 4399 c2 -6 8 -10 13 -10 5 0 11 4 13 10 2 6 -4 11 -13 11 -9 0
-15 -5 -13 -11z"/>
<path d="M1767 4393 c-4 -3 -7 -21 -7 -40 0 -26 -4 -33 -20 -33 -11 0 -20 -4
-20 -10 0 -15 36 -12 48 3 6 7 10 26 9 43 -1 22 2 29 15 28 10 -1 15 2 12 7
-6 11 -28 12 -37 2z"/>
<path d="M1680 4292 c0 -12 24 -22 53 -22 27 0 11 16 -25 25 -17 4 -28 3 -28
-3z"/>
<path d="M4145 4440 c-3 -6 5 -10 19 -10 14 0 28 5 31 10 3 6 -5 10 -19 10
-14 0 -28 -4 -31 -10z"/>
<path d="M4170 4395 c0 -9 5 -15 11 -13 6 2 11 8 11 13 0 5 -5 11 -11 13 -6 2
-11 -4 -11 -13z"/>
<path d="M2740 4410 c-8 -5 -12 -11 -9 -15 9 -8 69 7 63 16 -7 12 -35 11 -54
-1z"/>
<path d="M2756 4373 c-11 -11 -6 -23 9 -23 8 0 15 4 15 9 0 13 -16 22 -24 14z"/>
<path d="M2637 4364 c-8 -8 1 -24 14 -24 5 0 9 7 9 15 0 15 -12 20 -23 9z"/>
<path d="M2680 4325 c0 -25 5 -45 10 -45 6 0 10 20 10 45 0 25 -4 45 -10 45
-5 0 -10 -20 -10 -45z"/>
<path d="M2718 4273 c-40 -6 -34 -23 7 -23 24 0 35 5 35 15 0 8 -3 14 -7 14
-5 -1 -20 -4 -35 -6z"/>
<path d="M6775 4371 c-6 -11 9 -23 19 -14 9 9 7 23 -3 23 -6 0 -12 -4 -16 -9z"/>
<path d="M6840 4331 c-11 -16 -20 -39 -20 -51 0 -23 -8 -23 -52 -5 -29 12 -21
-11 8 -24 33 -15 49 -3 71 51 8 21 19 36 23 33 5 -3 11 -1 14 4 3 5 -1 11 -9
15 -9 3 -22 -6 -35 -23z"/>
<path d="M3182 4228 c-7 -7 -12 -16 -12 -20 0 -15 15 -8 28 12 13 22 3 27 -16
8z"/>
<path d="M3260 4225 c0 -2 9 -9 20 -15 16 -9 20 -8 20 5 0 8 -9 15 -20 15 -11
0 -20 -2 -20 -5z"/>
<path d="M3170 4157 c0 -19 10 -27 26 -20 11 4 12 9 3 19 -15 18 -29 18 -29 1z"/>
<path d="M3270 4145 c0 -8 7 -15 15 -15 8 0 15 7 15 15 0 8 -7 15 -15 15 -8 0
-15 -7 -15 -15z"/>
<path d="M3181 4071 c-1 -29 1 -32 14 -21 9 7 12 16 7 19 -5 3 -12 13 -15 21
-3 8 -6 0 -6 -19z"/>
<path d="M3277 4073 c-12 -11 -8 -23 8 -23 8 0 15 7 15 15 0 16 -12 20 -23 8z"/>
<path d="M3182 3990 c0 -14 2 -19 5 -12 2 6 2 18 0 25 -3 6 -5 1 -5 -13z"/>
<path d="M4537 4194 c-3 -4 3 -18 13 -32 11 -13 30 -55 42 -91 21 -60 23 -88
25 -296 2 -126 3 -249 3 -272 -1 -26 4 -43 11 -43 8 0 10 18 5 63 -3 34 -6 67
-6 72 0 6 3 80 6 167 7 168 -2 250 -37 340 -22 59 -51 102 -62 92z"/>
<path d="M3700 4160 c0 -5 5 -10 10 -10 6 0 10 5 10 10 0 6 -4 10 -10 10 -5 0
-10 -4 -10 -10z"/>
<path d="M3857 4163 c-12 -11 -8 -23 8 -23 8 0 15 7 15 15 0 16 -12 20 -23 8z"/>
<path d="M3686 4022 c-3 -6 -1 -14 5 -17 15 -10 25 3 12 16 -7 7 -13 7 -17 1z"/>
<path d="M3840 4005 c0 -8 7 -15 15 -15 8 0 15 7 15 15 0 8 -7 15 -15 15 -8 0
-15 -7 -15 -15z"/>
<path d="M3685 3719 c-10 -15 3 -25 16 -12 7 7 7 13 1 17 -6 3 -14 1 -17 -5z"/>
<path d="M8660 4094 c0 -8 5 -12 10 -9 6 4 8 11 5 16 -9 14 -15 11 -15 -7z"/>
<path d="M7560 4105 c0 -8 5 -15 10 -15 6 0 10 7 10 15 0 8 -4 15 -10 15 -5 0
-10 -7 -10 -15z"/>
<path d="M7720 4106 c0 -9 5 -16 10 -16 6 0 10 4 10 9 0 6 -4 13 -10 16 -5 3
-10 -1 -10 -9z"/>
<path d="M7550 3970 c0 -5 5 -10 10 -10 6 0 10 5 10 10 0 6 -4 10 -10 10 -5 0
-10 -4 -10 -10z"/>
<path d="M7710 3965 c0 -8 5 -15 10 -15 6 0 10 7 10 15 0 8 -4 15 -10 15 -5 0
-10 -7 -10 -15z"/>
<path d="M7542 3821 c4 -13 18 -16 19 -4 0 4 -5 9 -11 12 -7 2 -11 -2 -8 -8z"/>
<path d="M7700 3815 c0 -9 5 -15 11 -13 6 2 11 8 11 13 0 5 -5 11 -11 13 -6 2
-11 -4 -11 -13z"/>
<path d="M5640 4060 c0 -5 7 -10 15 -10 8 0 15 5 15 10 0 6 -7 10 -15 10 -8 0
-15 -4 -15 -10z"/>
<path d="M5685 3939 c-10 -15 3 -25 16 -12 7 7 7 13 1 17 -6 3 -14 1 -17 -5z"/>
<path d="M5820 3784 c0 -17 22 -14 28 4 2 7 -3 12 -12 12 -9 0 -16 -7 -16 -16z"/>
<path d="M5702 3779 c2 -6 8 -10 13 -10 5 0 11 4 13 10 2 6 -4 11 -13 11 -9 0
-15 -5 -13 -11z"/>
<path d="M1582 4049 c2 -6 8 -10 13 -10 5 0 11 4 13 10 2 6 -4 11 -13 11 -9 0
-15 -5 -13 -11z"/>
<path d="M1605 3901 c-6 -11 9 -23 19 -14 9 9 7 23 -3 23 -6 0 -12 -4 -16 -9z"/>
<path d="M1730 3895 c0 -8 5 -15 10 -15 6 0 10 7 10 15 0 8 -4 15 -10 15 -5 0
-10 -7 -10 -15z"/>
<path d="M1605 3739 c-4 -6 -5 -13 -2 -16 7 -7 27 6 27 18 0 12 -17 12 -25 -2z"/>
<path d="M1725 3739 c-10 -15 3 -25 16 -12 7 7 7 13 1 17 -6 3 -14 1 -17 -5z"/>
<path d="M6650 4065 c0 -8 5 -15 10 -15 6 0 10 7 10 15 0 8 -4 15 -10 15 -5 0
-10 -7 -10 -15z"/>
<path d="M6660 3930 c0 -5 7 -10 16 -10 8 0 12 5 9 10 -3 6 -10 10 -16 10 -5
0 -9 -4 -9 -10z"/>
<path d="M2657 4044 c-8 -8 1 -24 14 -24 5 0 9 7 9 15 0 15 -12 20 -23 9z"/>
<path d="M2817 4034 c-8 -8 1 -24 14 -24 5 0 9 7 9 15 0 15 -12 20 -23 9z"/>
<path d="M2640 3885 c0 -9 5 -15 11 -13 6 2 11 8 11 13 0 5 -5 11 -11 13 -6 2
-11 -4 -11 -13z"/>
<path d="M2800 3875 c0 -9 5 -15 11 -13 6 2 11 8 11 13 0 5 -5 11 -11 13 -6 2
-11 -4 -11 -13z"/>
<path d="M2636 3732 c-3 -6 -1 -14 5 -17 15 -10 25 3 12 16 -7 7 -13 7 -17 1z"/>
<path d="M2800 3715 c0 -9 5 -15 11 -13 6 2 11 8 11 13 0 5 -5 11 -11 13 -6 2
-11 -4 -11 -13z"/>
<path d="M7726 3595 c-9 -14 -12 -25 -7 -25 12 0 35 39 28 46 -2 3 -12 -7 -21
-21z"/>
<path d="M6215 3557 c-10 -8 -15 -19 -11 -25 10 -16 149 -26 175 -13 25 14 28
36 5 45 -30 12 -150 6 -169 -7z m133 -14 c-15 -2 -42 -2 -60 0 -18 2 -6 4 27
4 33 0 48 -2 33 -4z"/>
<path d="M5726 3461 c-4 -7 -5 -15 -2 -18 9 -9 19 4 14 18 -4 11 -6 11 -12 0z"/>
<path d="M7000 3365 c0 -18 5 -25 20 -25 15 0 20 7 20 25 0 18 -5 25 -20 25
-15 0 -20 -7 -20 -25z"/>
<path d="M8070 4979 c-75 -31 -140 -123 -140 -198 0 -123 94 -220 216 -221 37
0 65 -8 108 -31 31 -17 59 -29 61 -27 2 2 -3 27 -11 55 l-15 50 33 53 c88 142
-2 320 -166 327 -33 2 -72 -2 -86 -8z m145 -28 c78 -36 115 -95 115 -182 0
-53 -9 -77 -46 -121 -19 -24 -21 -33 -13 -60 14 -49 12 -51 -22 -27 -25 17
-47 23 -98 23 -83 2 -130 28 -168 94 -93 158 69 349 232 273z"/>
<path d="M8126 4896 c6 -25 -10 -66 -25 -66 -5 0 -12 10 -15 23 -6 18 -12 8
-31 -50 -28 -81 -22 -119 20 -147 35 -23 107 -21 138 4 44 35 49 146 6 157
-10 3 -19 11 -19 19 0 16 -58 84 -71 84 -5 0 -7 -11 -3 -24z m54 -98 c0 -11 8
-18 20 -18 25 0 35 -36 21 -73 -6 -15 -26 -34 -45 -43 -32 -16 -36 -16 -68 3
-18 10 -37 31 -42 46 -13 36 4 83 27 79 11 -2 25 10 39 34 l21 36 13 -23 c7
-13 13 -32 14 -41z"/>
<path d="M2160 4961 c-112 -34 -179 -122 -180 -234 0 -60 13 -97 56 -154 l24
-32 -21 -56 c-11 -30 -19 -60 -17 -65 2 -6 32 7 68 28 56 34 73 39 126 39 73
1 126 25 174 79 44 51 60 93 60 162 0 155 -150 275 -290 233z m149 -40 c75
-39 121 -115 121 -202 0 -54 -48 -139 -98 -174 -38 -26 -53 -30 -118 -32 -60
-2 -80 -6 -111 -27 -20 -14 -39 -24 -41 -22 -2 2 2 22 9 44 11 37 10 42 -14
74 -73 96 -75 198 -4 284 59 71 175 96 256 55z"/>
<path d="M2196 4869 c-4 -23 -10 -30 -21 -25 -19 7 -35 -30 -35 -77 0 -38 7
-50 37 -66 32 -16 57 -14 87 10 21 17 26 29 26 65 0 28 -4 44 -12 44 -7 0 -22
17 -33 37 -26 48 -41 51 -49 12z m74 -106 c0 -12 -4 -25 -10 -28 -5 -3 -10 3
-10 13 0 27 -25 45 -50 37 -13 -4 -20 -15 -20 -33 0 -19 -3 -23 -11 -15 -16
16 -2 73 16 67 9 -4 17 4 21 21 l6 26 29 -33 c15 -18 28 -43 29 -55z m-40 -23
c0 -11 -7 -20 -15 -20 -8 0 -15 9 -15 20 0 11 7 20 15 20 8 0 15 -9 15 -20z"/>
<path d="M2114 4656 c-3 -8 -4 -25 -2 -38 3 -22 7 -23 101 -26 106 -3 116 2
103 53 -6 24 -8 25 -102 25 -73 0 -96 -3 -100 -14z m176 -23 c0 -16 -10 -18
-74 -18 -41 0 -77 3 -81 7 -18 18 12 28 81 28 64 0 74 -2 74 -17z"/>
<path d="M6976 4189 c-32 -37 -33 -76 -6 -130 19 -36 19 -42 6 -67 -49 -89
-55 -134 -26 -181 15 -24 24 -31 32 -23 7 7 4 19 -11 40 -28 41 -26 69 9 122
35 53 37 68 10 120 -26 51 -25 68 5 113 31 45 17 49 -19 6z"/>
<path d="M7069 4149 c-6 -12 -8 -38 -5 -63 13 -78 10 -97 -18 -122 -33 -32
-34 -71 -1 -103 29 -26 30 -36 10 -71 -17 -29 -20 -70 -5 -70 6 0 10 7 10 15
0 8 8 31 17 50 17 36 17 38 -5 75 -28 49 -28 56 4 102 21 30 25 44 20 70 -18
85 -18 94 -2 107 20 17 21 31 1 31 -8 0 -19 -9 -26 -21z"/>
<path d="M7147 3992 c-23 -25 -21 -70 3 -110 26 -42 25 -73 -1 -106 -11 -14
-17 -31 -14 -37 11 -16 55 51 55 83 0 16 -9 46 -20 68 -24 47 -25 73 -5 90 16
14 20 30 7 30 -5 0 -16 -8 -25 -18z"/>
<path d="M9782 481 c-22 -22 -46 -49 -52 -60 -10 -20 -8 -21 50 -21 l60 0 0
60 c0 33 -4 60 -9 60 -5 0 -27 -18 -49 -39z"/>
</g>
</svg>
